<mxfile host="app.diagrams.net" modified="2024-05-27T18:33:24.092Z" agent="Mozilla/5.0 (Macintosh; Intel Mac OS X 10_15_7) AppleWebKit/537.36 (KHTML, like Gecko) Chrome/125.0.0.0 Safari/537.36" etag="LFM6mStuKCzSfUNk_Io1" version="24.4.9" type="github">
  <diagram name="Page-1" id="RApj-0nbQO1Q3FxsVnuJ">
    <mxGraphModel dx="1026" dy="650" grid="1" gridSize="10" guides="1" tooltips="1" connect="1" arrows="1" fold="1" page="1" pageScale="1" pageWidth="850" pageHeight="1100" math="0" shadow="0">
      <root>
        <mxCell id="0" />
        <mxCell id="1" parent="0" />
        <mxCell id="sZqguTcHC14YNJKMhpEw-3" value="" style="rounded=1;whiteSpace=wrap;html=1;" parent="1" vertex="1">
          <mxGeometry x="20" y="80" width="330" height="470" as="geometry" />
        </mxCell>
        <mxCell id="sZqguTcHC14YNJKMhpEw-4" value="" style="image;aspect=fixed;html=1;points=[];align=center;fontSize=12;image=img/lib/azure2/compute/Kubernetes_Services.svg;" parent="1" vertex="1">
          <mxGeometry x="30" y="100" width="34" height="30" as="geometry" />
        </mxCell>
        <mxCell id="sZqguTcHC14YNJKMhpEw-5" value="" style="verticalLabelPosition=bottom;html=1;verticalAlign=top;align=center;strokeColor=none;fillColor=#00BEF2;shape=mxgraph.azure.storage_blob;" parent="1" vertex="1">
          <mxGeometry x="460" y="80" width="95" height="80" as="geometry" />
        </mxCell>
        <mxCell id="sZqguTcHC14YNJKMhpEw-6" value="" style="rounded=1;whiteSpace=wrap;html=1;" parent="1" vertex="1">
          <mxGeometry x="670" y="115" width="130" height="150" as="geometry" />
        </mxCell>
        <mxCell id="sZqguTcHC14YNJKMhpEw-7" value="" style="rounded=1;whiteSpace=wrap;html=1;" parent="1" vertex="1">
          <mxGeometry x="670" y="349.5" width="130" height="150" as="geometry" />
        </mxCell>
        <mxCell id="sZqguTcHC14YNJKMhpEw-8" value="" style="shape=image;html=1;verticalAlign=top;verticalLabelPosition=bottom;labelBackgroundColor=#ffffff;imageAspect=0;aspect=fixed;image=https://cdn2.iconfinder.com/data/icons/social-media-2285/512/1_Slack_colored_svg-128.png" parent="1" vertex="1">
          <mxGeometry x="440" y="460" width="90.5" height="90.5" as="geometry" />
        </mxCell>
        <mxCell id="sZqguTcHC14YNJKMhpEw-9" value="" style="image;aspect=fixed;html=1;points=[];align=center;fontSize=12;image=img/lib/azure2/compute/Kubernetes_Services.svg;" parent="1" vertex="1">
          <mxGeometry x="670" y="125" width="34" height="30" as="geometry" />
        </mxCell>
        <mxCell id="sZqguTcHC14YNJKMhpEw-10" value="" style="image;aspect=fixed;html=1;points=[];align=center;fontSize=12;image=img/lib/azure2/compute/Kubernetes_Services.svg;" parent="1" vertex="1">
          <mxGeometry x="670" y="359.5" width="34" height="30" as="geometry" />
        </mxCell>
        <mxCell id="sZqguTcHC14YNJKMhpEw-11" value="" style="shape=image;verticalLabelPosition=bottom;labelBackgroundColor=default;verticalAlign=top;aspect=fixed;imageAspect=0;image=https://static-00.iconduck.com/assets.00/thanos-icon-2048x2048-fk3fewoq.png;" parent="1" vertex="1">
          <mxGeometry x="40" y="287.5" width="70" height="70" as="geometry" />
        </mxCell>
        <mxCell id="sZqguTcHC14YNJKMhpEw-12" value="" style="rounded=1;whiteSpace=wrap;html=1;" parent="1" vertex="1">
          <mxGeometry x="220" y="115" width="100" height="115" as="geometry" />
        </mxCell>
        <mxCell id="sZqguTcHC14YNJKMhpEw-13" value="" style="shape=image;verticalLabelPosition=bottom;labelBackgroundColor=default;verticalAlign=top;aspect=fixed;imageAspect=0;image=https://static-00.iconduck.com/assets.00/thanos-icon-2048x2048-fk3fewoq.png;" parent="1" vertex="1">
          <mxGeometry x="230" y="242.5" width="45" height="45" as="geometry" />
        </mxCell>
        <mxCell id="sZqguTcHC14YNJKMhpEw-14" value="Thanos-Query" style="rounded=1;whiteSpace=wrap;html=1;" parent="1" vertex="1">
          <mxGeometry x="220" y="320" width="110" height="50" as="geometry" />
        </mxCell>
        <mxCell id="XJaKJMAvGqsHAcfkMpIT-20" style="edgeStyle=orthogonalEdgeStyle;rounded=0;orthogonalLoop=1;jettySize=auto;html=1;exitX=1;exitY=0.5;exitDx=0;exitDy=0;entryX=0;entryY=0.5;entryDx=0;entryDy=0;" parent="1" source="sZqguTcHC14YNJKMhpEw-16" target="DmISjQHBVxlSU7l8rtDy-4" edge="1">
          <mxGeometry relative="1" as="geometry">
            <mxPoint x="247.28999999999996" y="455" as="targetPoint" />
          </mxGeometry>
        </mxCell>
        <mxCell id="XJaKJMAvGqsHAcfkMpIT-22" style="edgeStyle=orthogonalEdgeStyle;rounded=0;orthogonalLoop=1;jettySize=auto;html=1;exitX=0.5;exitY=0;exitDx=0;exitDy=0;entryX=0.5;entryY=1;entryDx=0;entryDy=0;" parent="1" source="sZqguTcHC14YNJKMhpEw-16" target="sZqguTcHC14YNJKMhpEw-11" edge="1">
          <mxGeometry relative="1" as="geometry" />
        </mxCell>
        <mxCell id="sZqguTcHC14YNJKMhpEw-16" value="" style="shape=image;verticalLabelPosition=bottom;labelBackgroundColor=default;verticalAlign=top;aspect=fixed;imageAspect=0;image=https://static-00.iconduck.com/assets.00/thanos-icon-2048x2048-fk3fewoq.png;" parent="1" vertex="1">
          <mxGeometry x="40" y="420" width="70" height="70" as="geometry" />
        </mxCell>
        <mxCell id="sZqguTcHC14YNJKMhpEw-17" value="" style="shape=image;verticalLabelPosition=bottom;labelBackgroundColor=default;verticalAlign=top;aspect=fixed;imageAspect=0;image=https://devopy.io/wp-content/uploads/2019/02/bell_260.svg;" parent="1" vertex="1">
          <mxGeometry x="230" y="465" width="55" height="55" as="geometry" />
        </mxCell>
        <mxCell id="XJaKJMAvGqsHAcfkMpIT-2" value="" style="shape=image;verticalLabelPosition=bottom;labelBackgroundColor=default;verticalAlign=top;aspect=fixed;imageAspect=0;image=https://upload.wikimedia.org/wikipedia/commons/thumb/3/38/Prometheus_software_logo.svg/1200px-Prometheus_software_logo.svg.png;" parent="1" vertex="1">
          <mxGeometry x="270" y="170" width="34.79" height="34.5" as="geometry" />
        </mxCell>
        <mxCell id="XJaKJMAvGqsHAcfkMpIT-3" value="" style="shape=image;verticalLabelPosition=bottom;labelBackgroundColor=default;verticalAlign=top;aspect=fixed;imageAspect=0;image=https://upload.wikimedia.org/wikipedia/commons/thumb/3/38/Prometheus_software_logo.svg/1200px-Prometheus_software_logo.svg.png;" parent="1" vertex="1">
          <mxGeometry x="690" y="439.5" width="34.79" height="34.5" as="geometry" />
        </mxCell>
        <mxCell id="XJaKJMAvGqsHAcfkMpIT-4" value="" style="shape=image;verticalLabelPosition=bottom;labelBackgroundColor=default;verticalAlign=top;aspect=fixed;imageAspect=0;image=https://upload.wikimedia.org/wikipedia/commons/thumb/3/38/Prometheus_software_logo.svg/1200px-Prometheus_software_logo.svg.png;" parent="1" vertex="1">
          <mxGeometry x="700" y="205.5" width="34.79" height="34.5" as="geometry" />
        </mxCell>
        <mxCell id="XJaKJMAvGqsHAcfkMpIT-5" style="edgeStyle=orthogonalEdgeStyle;rounded=0;orthogonalLoop=1;jettySize=auto;html=1;exitX=0.5;exitY=1;exitDx=0;exitDy=0;" parent="1" source="XJaKJMAvGqsHAcfkMpIT-3" target="XJaKJMAvGqsHAcfkMpIT-3" edge="1">
          <mxGeometry relative="1" as="geometry" />
        </mxCell>
        <mxCell id="XJaKJMAvGqsHAcfkMpIT-6" value="" style="shape=image;verticalLabelPosition=bottom;labelBackgroundColor=default;verticalAlign=top;aspect=fixed;imageAspect=0;image=https://static-00.iconduck.com/assets.00/thanos-icon-2048x2048-fk3fewoq.png;" parent="1" vertex="1">
          <mxGeometry x="740" y="207.75" width="30" height="30" as="geometry" />
        </mxCell>
        <mxCell id="XJaKJMAvGqsHAcfkMpIT-7" value="" style="rounded=1;whiteSpace=wrap;html=1;fillColor=none;" parent="1" vertex="1">
          <mxGeometry x="685" y="190" width="100" height="65" as="geometry" />
        </mxCell>
        <mxCell id="XJaKJMAvGqsHAcfkMpIT-8" value="" style="rounded=1;whiteSpace=wrap;html=1;fillColor=none;" parent="1" vertex="1">
          <mxGeometry x="680" y="419.5" width="100" height="65" as="geometry" />
        </mxCell>
        <mxCell id="XJaKJMAvGqsHAcfkMpIT-9" value="" style="rounded=1;whiteSpace=wrap;html=1;fillColor=none;" parent="1" vertex="1">
          <mxGeometry x="229.58" y="164.5" width="80.42" height="45.5" as="geometry" />
        </mxCell>
        <mxCell id="XJaKJMAvGqsHAcfkMpIT-11" value="" style="shape=image;verticalLabelPosition=bottom;labelBackgroundColor=default;verticalAlign=top;aspect=fixed;imageAspect=0;image=https://static-00.iconduck.com/assets.00/thanos-icon-2048x2048-fk3fewoq.png;" parent="1" vertex="1">
          <mxGeometry x="734.79" y="439.5" width="30" height="30" as="geometry" />
        </mxCell>
        <mxCell id="XJaKJMAvGqsHAcfkMpIT-12" value="" style="shape=image;verticalLabelPosition=bottom;labelBackgroundColor=default;verticalAlign=top;aspect=fixed;imageAspect=0;image=https://static-00.iconduck.com/assets.00/thanos-icon-2048x2048-fk3fewoq.png;" parent="1" vertex="1">
          <mxGeometry x="237.5" y="172.25" width="30" height="30" as="geometry" />
        </mxCell>
        <mxCell id="XJaKJMAvGqsHAcfkMpIT-13" value="" style="endArrow=classic;html=1;rounded=0;exitX=1;exitY=0.5;exitDx=0;exitDy=0;entryX=0;entryY=0.5;entryDx=0;entryDy=0;entryPerimeter=0;" parent="1" source="XJaKJMAvGqsHAcfkMpIT-9" target="sZqguTcHC14YNJKMhpEw-5" edge="1">
          <mxGeometry width="50" height="50" relative="1" as="geometry">
            <mxPoint x="400" y="330" as="sourcePoint" />
            <mxPoint x="450" y="280" as="targetPoint" />
          </mxGeometry>
        </mxCell>
        <mxCell id="XJaKJMAvGqsHAcfkMpIT-14" value="" style="endArrow=classic;html=1;rounded=0;exitX=1;exitY=0.5;exitDx=0;exitDy=0;entryX=0.179;entryY=0.95;entryDx=0;entryDy=0;entryPerimeter=0;" parent="1" source="sZqguTcHC14YNJKMhpEw-13" target="sZqguTcHC14YNJKMhpEw-5" edge="1">
          <mxGeometry width="50" height="50" relative="1" as="geometry">
            <mxPoint x="400" y="330" as="sourcePoint" />
            <mxPoint x="450" y="280" as="targetPoint" />
          </mxGeometry>
        </mxCell>
        <mxCell id="XJaKJMAvGqsHAcfkMpIT-15" value="" style="endArrow=classic;html=1;rounded=0;exitX=1;exitY=0.5;exitDx=0;exitDy=0;entryX=0;entryY=0.5;entryDx=0;entryDy=0;" parent="1" source="sZqguTcHC14YNJKMhpEw-11" target="sZqguTcHC14YNJKMhpEw-14" edge="1">
          <mxGeometry width="50" height="50" relative="1" as="geometry">
            <mxPoint x="400" y="330" as="sourcePoint" />
            <mxPoint x="450" y="280" as="targetPoint" />
          </mxGeometry>
        </mxCell>
        <mxCell id="XJaKJMAvGqsHAcfkMpIT-23" value="" style="shape=image;verticalLabelPosition=bottom;labelBackgroundColor=default;verticalAlign=top;aspect=fixed;imageAspect=0;image=https://upload.wikimedia.org/wikipedia/commons/thumb/archive/a/a1/20230113183100%21Grafana_logo.svg/118px-Grafana_logo.svg.png;" parent="1" vertex="1">
          <mxGeometry x="70" y="115" width="98.33" height="100" as="geometry" />
        </mxCell>
        <mxCell id="XJaKJMAvGqsHAcfkMpIT-24" value="" style="endArrow=classic;startArrow=classic;html=1;rounded=0;exitX=0.75;exitY=0;exitDx=0;exitDy=0;entryX=0.25;entryY=1;entryDx=0;entryDy=0;" parent="1" source="sZqguTcHC14YNJKMhpEw-11" target="XJaKJMAvGqsHAcfkMpIT-23" edge="1">
          <mxGeometry width="50" height="50" relative="1" as="geometry">
            <mxPoint x="400" y="330" as="sourcePoint" />
            <mxPoint x="450" y="280" as="targetPoint" />
          </mxGeometry>
        </mxCell>
        <mxCell id="XJaKJMAvGqsHAcfkMpIT-25" value="Query" style="text;html=1;align=center;verticalAlign=middle;whiteSpace=wrap;rounded=0;" parent="1" vertex="1">
          <mxGeometry x="45" y="255" width="60" height="30" as="geometry" />
        </mxCell>
        <mxCell id="XJaKJMAvGqsHAcfkMpIT-26" value="Ruler" style="text;html=1;align=center;verticalAlign=middle;whiteSpace=wrap;rounded=0;" parent="1" vertex="1">
          <mxGeometry x="45" y="390" width="60" height="30" as="geometry" />
        </mxCell>
        <mxCell id="XJaKJMAvGqsHAcfkMpIT-27" style="edgeStyle=orthogonalEdgeStyle;rounded=0;orthogonalLoop=1;jettySize=auto;html=1;exitX=0;exitY=0.5;exitDx=0;exitDy=0;entryX=1;entryY=0.5;entryDx=0;entryDy=0;entryPerimeter=0;" parent="1" source="XJaKJMAvGqsHAcfkMpIT-7" target="sZqguTcHC14YNJKMhpEw-5" edge="1">
          <mxGeometry relative="1" as="geometry" />
        </mxCell>
        <mxCell id="XJaKJMAvGqsHAcfkMpIT-29" style="edgeStyle=orthogonalEdgeStyle;rounded=0;orthogonalLoop=1;jettySize=auto;html=1;exitX=0.25;exitY=0;exitDx=0;exitDy=0;entryX=0.75;entryY=1;entryDx=0;entryDy=0;entryPerimeter=0;" parent="1" source="XJaKJMAvGqsHAcfkMpIT-8" target="sZqguTcHC14YNJKMhpEw-5" edge="1">
          <mxGeometry relative="1" as="geometry">
            <Array as="points">
              <mxPoint x="705" y="310" />
              <mxPoint x="531" y="310" />
            </Array>
          </mxGeometry>
        </mxCell>
        <mxCell id="XJaKJMAvGqsHAcfkMpIT-30" value="Thanos Cluster" style="text;strokeColor=none;fillColor=none;html=1;fontSize=24;fontStyle=1;verticalAlign=middle;align=center;" parent="1" vertex="1">
          <mxGeometry x="130" y="40" width="100" height="40" as="geometry" />
        </mxCell>
        <mxCell id="XJaKJMAvGqsHAcfkMpIT-31" value="Cpaas Cluster" style="text;strokeColor=none;fillColor=none;html=1;fontSize=24;fontStyle=1;verticalAlign=middle;align=center;" parent="1" vertex="1">
          <mxGeometry x="680" y="70" width="100" height="40" as="geometry" />
        </mxCell>
        <mxCell id="XJaKJMAvGqsHAcfkMpIT-32" value="Cpaas Cluster" style="text;strokeColor=none;fillColor=none;html=1;fontSize=24;fontStyle=1;verticalAlign=middle;align=center;" parent="1" vertex="1">
          <mxGeometry x="685" y="510" width="100" height="40" as="geometry" />
        </mxCell>
        <mxCell id="XJaKJMAvGqsHAcfkMpIT-33" value="Blob Storage" style="text;strokeColor=none;fillColor=none;html=1;fontSize=24;fontStyle=1;verticalAlign=middle;align=center;" parent="1" vertex="1">
          <mxGeometry x="460" y="30" width="100" height="40" as="geometry" />
        </mxCell>
        <mxCell id="DmISjQHBVxlSU7l8rtDy-4" value="" style="shape=image;verticalLabelPosition=bottom;labelBackgroundColor=default;verticalAlign=top;aspect=fixed;imageAspect=0;image=data:image/png,iVBORw0KGgoAAAANSUhEUgAAAZoAAAGUCAYAAAAMDOQTAAABWmlDQ1BJQ0MgUHJvZmlsZQAAKJFtkLFLAmEYxp8rzTCjkLYKbgoHk7ALGlrMwCSHywwqGjpPO6PTvr67CKH/oYi2amtvi3BqawkagiJojGgPJEi53k+r0+qDl+fHw/O9vDxAR7fGmOkBUCzZPJ2YlpeWV2TfK7wYRBB+hDTdYjFVTVEE39r+qveQhN6Nil0Xh+ddfS8nR8+1pLS5fzv1N9/2/Lm8pZPWaCI64zYghYnVXZsJ3iMe4HQU8YFgo8lngrNNvmxkMuk48Q1xv17QcsRPxOFsi2+0cNHc0b9uENcH8qXFBdIgzRBSSEDGLGaQJlUwR/38n1ca+Ti2wFAGxwYMFGDTrxg5DCbyxEmUoCOCMHEUYzSK6Pl3f65XfgAm5wlWXS/zCFRUoOfY9UIjQO8acD3BNK79tCpVPdb6eLTJAQ543x3nbRjwVYA6d5yPU8epU4edtPNq+xMQ1WJalbOFDgAAAIplWElmTU0AKgAAAAgABAEaAAUAAAABAAAAPgEbAAUAAAABAAAARgEoAAMAAAABAAIAAIdpAAQAAAABAAAATgAAAAAAAACQAAAAAQAAAJAAAAABAAOShgAHAAAAEgAAAHigAgAEAAAAAQAAAZqgAwAEAAAAAQAAAZQAAAAAQVNDSUkAAABTY3JlZW5zaG90EDKYuwAAAAlwSFlzAAAWJQAAFiUBSVIk8AAAAdZpVFh0WE1MOmNvbS5hZG9iZS54bXAAAAAAADx4OnhtcG1ldGEgeG1sbnM6eD0iYWRvYmU6bnM6bWV0YS8iIHg6eG1wdGs9IlhNUCBDb3JlIDYuMC4wIj4KICAgPHJkZjpSREYgeG1sbnM6cmRmPSJodHRwOi8vd3d3LnczLm9yZy8xOTk5LzAyLzIyLXJkZi1zeW50YXgtbnMjIj4KICAgICAgPHJkZjpEZXNjcmlwdGlvbiByZGY6YWJvdXQ9IiIKICAgICAgICAgICAgeG1sbnM6ZXhpZj0iaHR0cDovL25zLmFkb2JlLmNvbS9leGlmLzEuMC8iPgogICAgICAgICA8ZXhpZjpQaXhlbFlEaW1lbnNpb24+NDA0PC9leGlmOlBpeGVsWURpbWVuc2lvbj4KICAgICAgICAgPGV4aWY6UGl4ZWxYRGltZW5zaW9uPjQxMDwvZXhpZjpQaXhlbFhEaW1lbnNpb24+CiAgICAgICAgIDxleGlmOlVzZXJDb21tZW50PlNjcmVlbnNob3Q8L2V4aWY6VXNlckNvbW1lbnQ+CiAgICAgIDwvcmRmOkRlc2NyaXB0aW9uPgogICA8L3JkZjpSREY+CjwveDp4bXBtZXRhPgqiiZCQAAAAHGlET1QAAAACAAAAAAAAAMoAAAAoAAAAygAAAMoAAGBgSOi1AwAAQABJREFUeAHsvVlwI1eWJXgBEARAEFwjGAtjVUihJRQRWlNSak+lSrlWVmfVVNm0zfRPt9l8jfV8jY3ZmLXZzFd/TH/MR5uNjVnbmM3SM9NdnVWZVcpNqS0lpaRM7VJICkmxB2NjcAWxE0Cfcx0PBBkMBkE8BxzkexICgMPd4bz+HMfvveeeG6piiBvOAm2yQLVSkWq5LJXFRamUiniUpIpHZZGPRXyG5bXPFvM5KefzUi4U8MAzX+uyrCzm+BkeXF7EfooFqRSK+n4R6+m+sa8q9lXmd3Df3G+F34FjqOJRqUoI0z8kVX1dqZSx3LscQqGQhMMRCYX5KR54z9ehUFhCkTA+65FQj/eIRKP6OhzpkXC0V3ricYnE4hKO9Uq4NyaR3l59H4knpCeRkEi8Dw8+e+tFYlgHr3uwjNuHuV/uC8/hHuwb+w/rw3zG4wq36Yy5r3EWWG6B2fn08gXreIfrzAHNOuzkVrFkAQLLYi4rpYW0FGZnpDQ3K6X5ObyflyKWLWYWZDGbUSBRoAHIEEQIFgQPBQwCFR5VAoM+VwQIgvd8LC3TqY3pzeVAEAUX77l2b9U49fXz5fdcBBsgy9JfXnttlhN0+Ln+6PO59joUIRDUwACAwM/NsjA/44MgAlAhSCkYAWwINASinr6k9CT7pbc/JdH+AYkODEp0cEhiQ8N4n8I6fQo8SwfmXjkLtM8CDmjaZ2v3TSstUPtBr9S8CAJKBZ5GWb0Wz3PhMnohBJMiwCU/My1FAk0aQJOeV/Ap1YBGvRd6KdwPvRECCh/wRDbD8DwjD3TUcwHgROj90LMB0EQBNASVaApAkxqUXgBNfHhEegE6BCF6RJ6XQ2+HgEXvCQ/sR0EMHpEBwM1gL/c3BMcCDmiCcy623JEQBMoABvVW0ml4KbNSAJAUZgEms7MKKAWAymImLeVa2KukYa9CLXTGkJkX4lJvxXgqtRDXkiey3OvoXkN7HpDnEdFzWvJ81Ouphc00jFYDoSjCcRpyo9eTTEkM4EMA6h2itzMiMQBRdGAIwOR5PQQuek9uOAvYtIADGpvWdPta1QIEFPVMSsyJMHdSe9BTyWXgmaThrQBkEBYrKtDgeW5GCDL0XhYzGQALPBzNl9BD2SzAsaq5rC00OSMPeJAHSiYVZDywGdawWi+AhuG13jrYJD1gYg4IjzCfo3im1+MAyNq52Wo7ckCz1c54B/5ehrQKBI6ZKclfvyb5yUl9Vs+lFv7SPAuAh6EzDX0BWJZyLGUvn0JPxYFMU2dQc0DMCzHn0xOphcy80JmG0RA60zxPLezWi7AbPZ34tjGJb9+uz7HhUXhCwxqia+rL3crOAjULOKBxU6F1C5hcCz0OAgQT8WRx0XPBaybt81PX8SDAeCCTn7ym4KP5FYbFsC7ZY2603wJkq9F7IamAeR6CSnw7gIZgsw1gM8rHNiUZMLSmXg7Zb3xtGG9ktNWID+3/C9w3Bt0CDmiCfoa64PjquRaEuOi5EFByV6/Ac7nqAQw8GS8EtuCBEEClwlwLkvZKH9bcCrwW56105mwr8w3eTo3Zpqw25nYYNgOYKJtNiQWjCjjx7TsksWOnAhBBiSE5l9vpzKnrlm91QNMtZypAx8lcyVKNCupTADDFBbDCCDLTXngsd+0ygOaa5ODBMP9C+jFDYm50nwUYYiOrjXmcBD0ceDuJsV2exzMyirwPcjz9/R7gaL2PV+vD3JAbzgK0gAMaNw+atgDDXTl4K7krlyR76aJk6b0w9zKDGpeFOQUVpRrXQmday2IYYU1/m9ug0xYwNT1KiYaHUy8WJaW6fxAUaoTaEGbrg5fTt3uPJHbulgS8Hobh3HAWoAUc0Lh5cFML1NlimnPxKu5ZEEkKcvbKBECGj4uSuwaggSdTRGK/XEBCHx6PG5vfAvRYIrGEkEAQh2eTGPOApm/3uPTtHFfqNIkGqmbAZ83pOPba5p8ZN/6FDmhutIlbUrNAnS2mOZfLkr18STLwYujNEGxYMMkaGIbRlC3GmhZ6Li7XsiXmkDLakNeh5A0LPymhQwUCFoyyPodeTRLeTd8ueDg7dkkMpALHXtsSU+OGP9IBzQ0m2YILDGuMVfhM0mt9S1YT+DmExOix5AAyWYBM5vIEQmRTLueyBafJev9kk9OJgxad3EXvBkBDsIHHk0CIjQWjBCQtJKW+G2t0HGttvebtyvUc0HTlabN70IY1VpqfV2+FYbHMhXMKLEzmk0nGhL96LwAhUpbVc6EemBvOAissYHI6DJURTAgqZKbRmyGZgMCT3Ltfw2uayxkYcKy1FTbcbG8d0Gy2M7qOv6euhoyaFyP/wqp8JvRzVy9L5tIFyVw8L1l4MkpLRp2LFxJzwLIO87pVVljAaLSxTofeTB88m+SefZLcvVdDaiQSqPhnTQaHpANPUNSpTa8wZde+dUDTtadu4wdOmjEBhpX6TOYvnD8r82dPgz12WSnKVEn2vBdK5zfmXZz0y8atvpW3rKlUM59DDTaKgDKXAwFQUqP7kL8ZOHCb9O87oKw1KhHwc67rxuawgAOazXEe1/wr1IOp1b6QmkyJfcq/kJacuXhOFhAmS587o8WVjjW2pindhxYtYFhrVB1I7T8o/QinJfcgpAaaNGVwtNUBVaeRx9E+PszjuNGVFnBA05WnrbmDJiOsBAVkJvXTZ04psGRIS0aojEWWFLUssaDS5F4ca6w5A7u1N2SBOmsNuZwoa3IQOqOHQ8JAEvU4BJ7UwUNKIohCeZrMNje60wIOaLrzvK151Cs9mCLyLwSVzMQFmT/zjeZfmIspoGLf0xiD/MsmH9qKbBUtroYWZSrVhSCP14zsJvbw9nOTD1cuRqTxZsFGLicNXP9rWKnh5dLedL2lt5v1FfMyLAaNUYEA4TTmcQYO3i7JceRyyFZjEzfn4XTl6XdA05Wnbe2DXunBpM+dljTyMEzuM2xGORit3AcZwHSSXHuP3f0pwcFTMW6EFSzD8jB1vmqL+boH4ZkwHmgvVl/e+Nd7+2pccvPXdAxXAw4uR7URGnxWZBGPChdg8ImvV26jgLTK8pt/c5d+wnNB27Mpm2nmhqZtJA+k9h1AeO025+F06al1QNOlJ67xsA2LjDUwzMEUkX8hLZkeTPr01woyZJIV5+Y2HXtMMYI/UDAIwUSBg69pIPzDZwjk14CGC71h1o/UtuVSbt8TwQ8dZPXNfmqr65O3TeOSW78meNwAHNiMgFJG24PF8lLrA65XJqCsABXdB/7Bmt6+avvk+gpMZn3zfOvD6oo1DFutd3BQGWoKNrfdUfNwtsPDQR7HeDgUBHU5nMCeVwc0gT016z8wwyJjxf78qa8kffaUpJHgZ05G2x6DRcYOlcog46/WDT996/+uIK1pwIKgYLyRXoZfwh7w4Amggc8INDxw/acGPgowBKClv4gv1fNRYFpa3viqYfXGxTd9TWuvNngavLDZcg/GLF/m2ei6ABVsQSCq1N6X8aIIJQbjFS0DndW+tOuWeTcIylRjCwNlqSGsRg+H+ZsDh2Tg0GFVIHAstWCfXAc0wT4/qx8dfmzoxWgb5KxXwc8amAUwyOa+OakMMlbwE2SqlIXpwsJK/UFXMPB+/I2H4S1fAgsDMgQUhr2iAJoebocVyVFSj4VvGgbfmf01LA7MS4LTMqCpHRk9HQUavCcgLeKfUg1oPAAiCHkP7oP3E3zmYxkIYR39nOt00dBCUMjdsBaHigNkqg3efqf0g6nGWhxVHOiD4gDIBerdrDjvXfSnbrpDdUDThafUVPIXIGS5cOGsMslmv/4ShZYXtR0y62AoI6OqyfxF4qOLBoHAhMHW8lQIIgokNQ+EfosCCHZgoMXsa+Wfbz5fuTwo71c7Y40hNX7O0+oBEoADrwkfBBzz2HSeD863zgvN4XgeDgs9yVAbuuMuzd/07z0gMQh8uv44QZnJ3nE4oAnW+VjzaEyIjAl96o1RPTl99hswyU7JHHIx7GLZLR6M/tDzhwN/cR1U9PVSToWgwTBY9CaeCj9XYFnTalvnQ4KP8WhW83xK9IKBPsa70ZwPwaq2XR3IAFbcV9CH8XBYhzOI3M0AqNCpA7ej6HMcrQtGtQ7HhdSCcRYd0ATjPKzrKIoAGBZYshaGHswCZGIYMqMWWQmNx7QORm9tg/0zsQxcABYMeTG3EgWoMOxlwIMARI+lDijYUAEK1jL7MO/XZcAtsBLPfB0w+FrfLwcg8zkBR8Nv3ZrrwdzQmxTW4aDxmragRgitH7Ro4+GwALQXzDU3OmsBBzSdtf+a384QWd2LSc+pyOU8PJf5U1/LHB5ZdLEMeudKBQL+IOAvNYBhQl5hAAtfm9xKI9DQMGYbByZrTpN1f0jQ8UJt3iaNQLMs1wPgWQq/NeZ8gu3pkDTATqB96P45eAgeDh/wdCjiGU0N1mVtWK/jRnst4ICmvfZu6ttMP5jMxHmZ/eKEEGRIUyZ1mR4M5WKCrKJMgKiHxQAoDIHFeiLSy1AYHppfwUqEIQ+EljwVYygHMsYSdp4bfd0lz8YAkJfrIcgwzFbEo7BY1tcEJQUpPDfuw85R2dmLhtLIOkQzNno4VIqmcCfBZujuI6BF73P9cOyYuum9OKBp2mQ+bsCLmHF01sMgoc9kfwaS/QyVzXz+qYpfai8YCGIGbSggrPBcCB4m9GVyLTH8EPSiViWKz/i5G8GzAAGlhEcRNT4FeNWNuR3N/eCzOvDw8Dlvg/dnqAfDXA3FOofvOapkgeROdP4EWYBUadVQww0P7oYCePSb65Ac0ATofBo2WX7yGkJjJ9WDYaI/C6oylZbVi6npkQXosDXEtZrnYryWeqisDjyep+Mu7yCdxaVjIWjQ2yFrzQCLCaUZb6cbPB2VtDH5GwBOHyjRJAzQwxk8dKfEt485dtrSaff1lQMaX827vp0bgGFrZGqSUbZ/9kuEys58jYT/BaUsB4lNRoAgsBhwWQYkNZYYPRfmXIxHQ+/FAcv65kPQ1iLwGA/GA5rqqp6OASUNyQXIyzHsNFKh+/cglHYQobS7jqinQw01tp52dGh/Z50DGn/tu669a28YUJOpSTb92Uea7M+gbTKl/BdRkBm0ehiCRg8ZYmGGwQgozLl4oGKAhc/4v+7tOJBZ11QI7ErGy/Geb/R0SnB/NK+jBaRUK/DCa4H4g3QuIlSL+pseFHSyBUESBAGSBUbuvU811GKgSJMK7YY/FnBA449d194r7/YacjF5JPdJVZ5HuGz6s49lYeK8Svez8r/TQwGCFyoOxORcCDIKLgSZmudCWrIBGQcqnT5r7fl+4+nQkzE0abLX9IH5TbCpezk8pIB4OfRe2JKgH+SAkXuPA3CoLrAP6gLbXe7Gp6njgMYnw661WxMqq+dioE82981Xtcp+eDEZ9IYJgHQMAcOExwgyTOL39fRIDM8eqHjik8Ad57msdcI38WeNng5zOl6IDYQWgEoBZIIsGu6RVGBCb4bp1kmTMJQWhpRNTzLpeTdQFhi8/bDqprncjT9nxgGNP3Zdda8EGNbFFBfmhSCzcP6MzHz5mYbKKILJvjFcpwpV306NRnAhmJAtRjVjPsdwgSYANAQcl3Pp1BkK/vcaT4cAkwPQFOi9q3djnoNBla6rQyN3Q5FOhtKG77oXuZuDShTo7R/QdtKu7qb1OeeApnUbrnsPpi6GADP16YcyTy8GUv550JgXc+xwCQFM3Al69dzr3q21FQ3IaAEl6l0ILHzwvYJODXgcyFgz+abdkQEbD2C8EBpVpgk6fJRQn8P3nfVwaoSWXng3iaTEQXtmk7UBeDejR+9XwKHaAHvjuNGaBRzQtGa/dW3NZH4J4bD8FHvEnFeF5elPP1J2WQEKy6yb6dQw4FL3XAAmKglDoIHnwuLKRlmYTh2n+97utYABHeZxtAgUnk6xBjQMsbEvDwGps6ADpe9YHAWdQ8pGGzl6nypDs8gzPorcDcJsJBO4sTELOKDZmN2a2qqAkFj67GmZgz7Z9OefoBHZGSmAZcaiTO0RU+lMK2UDMlEASpwhMbDIjAyMejEIl1FqX6nMTf3FbmVngeUWUD8doMKgMEGF3owhEBQx//MIsZUAQJ0EmxDmP2VsWMxJFloKIbSRe47JIJWhD9yGfM7w8j/KvVu3BRzQrNtUTayIC4qsskVI9VNpmeGxGdTFzJ78HGKYX0gO+ZlO1cUYcGn0YJhzUaDBs2OPNXGe3aobsoDxcAxbjbkcAg2fg+DhmLqbBAo6h+64W4buvAe5G0rY7PUUoeMJ1++myTPvgKZJg61ndcMqy165DI2yTz2AQUMyVvhrrxiEyjQXA0Bq5zAgYzwYlYNBaMzUwJjci/Ng2nlWtuZ3GQ+nEXRYi+OF1jrs4SB8zGuAoTR6N1QUGEKDNQLO0N1HIdK5yxV4NjltHdA0abC1Vq+zylDhn2db5TPfyPQnH3jU5csXpYjlnRh60fDC4QPhMBZZkj3mAY23vBPH5b7TWaDRAvRmigAb6quRrcY21Y1kAr05a9ygTa97oRyQ3OVRoEeOPQBlgdvBStshXM5Qm2Ol3fpEOKC5tY3WvUadVYYK/+sfva85Ge16CZ2yxRw6XqI2phOD+ZZYrf6FLDJ6NEaHzHgxnTgu953OAo0WWO7dgJmGUJqy1PgM4GFepxNDa24SCYlBL43dPJmz2Xbfg9K/H3kbx0pb1ylxQLMuM629EgGkDCDJT19Ha+VzMvvV5zIFoGHSv5RGW+U2V/ibEBlBhF4MPZh41Cu0dCyytc+l+7TzFjCA08hSy5dqHg4JBcyB8tHmQzWKAiQJjAJohg7fI/2ov4mPbJMIgIiA5MbqFnBAs7pdmlpKMcwM8i+s7p/65H1VXc5duwqQme9IhT8BhjIxBBivkj+ilGUucyyypk6tW7lDFiCIEEzow1DKRmtwEErzlAY6o6VmFAUowpkY26Eq0KPHHlRVgSTyOFzuxuoWcECzul3WtbRSRH0MKMpZCGCytTIVl2dAX2YPmXKhoFX+69qRhZWMF8McjCdyCSZZLRfjKvktGNjtomMWMB6OURrIA3Ao4Gn65LTbu9H2A7EYhDnH0efmmCpBs3W0dvIEeSDc6+ptVk4WBzQrLdLEezYmm4dO2czJEyqGmYa8v6e4nFF6M27Jmtjbxlc1IMPcC5P8cdPFsiYd4/IwG7et2zIYFjBgQ3JACQWeZKflUfRJ0kDb628QMaB3w7bRVIJO7Tug4pzDdx5RvTQ2VnNjuQUc0Cy3x9rvGBfGBNcOmAiLMR9DKRl6MnMAnDyKMNupVbaSTUYWWQK5GHoyroPl2qfSfdq9FmCOhh1A6dnkkLshS60T7DSjlRZHcefgocPq2ah0DfI22uMG9GgCkvbL6F5zWzlyBzRNmNHUxzD/MoeE/wwKMGdQJ5OZuAiJGVT5F4pefUyb0pQ3Y5Ox6NLVwjRxYt2qXWUBejcMl3nKAp1kp9W00mK9kKhJoaBzjwyjzmYY9TaDIAowj+MaqnlTywHNei6xmidDMGFVfxr1MVOffAj68heiqsvQK2vXYJjMS/ZDhwyei2OTtcvy7nuCZgETTluNnUbygLLT2njQvdBJowr0INQERo/dLynU21BdgCC01T0bBzTrmIjGk2FNzNTH76Pa/zMNlWWvXUEHTKguQ/q/HcPkYhgi62eIDPkYejWOTdYO67vvCKIFjHfTyE6jnM1CLaTWTqIAizeZt+kb2+mF0u6+V0aPP6i1N1vds3FAs9bVYzwZMsuuXlbV5evvv6vPfF/KLKy1tbXPVuZimINJQdqcgOMS/dbM7HbU5RYwHg5zNmm03GAOpxO5m2iyX/p27FL1520PPqLPfE85m63q2TigWePiMp4Mk/4EGCovz585Jfnr15QQUMGdUzvGylwM6cosvIzgQS/HDWcBZwHPAgSbMsJmZKWRDt0JZYEwIg3USYtvG4NczSFVgCbgsLhzq3o2DmhWuULJLCPIlNAJM3v1ChL/X8i1d99STyavcjLZVbayu8iEyRq1yQxt2fWHsWtrt7fNZQHj2ZjcjaFBG+20doXTehJ9EodszSAEOcceeRwEgbvh6eyEZzOg+mjq3Wwu09/0r3FAs4ppmHNZzGW1Mdnk+++gCPNTSZ87oxIzlJMhCPk5DMiYupiENiFjrxi0UMYXO0aZn9Z3+94MFmjM3bCw0xPqbG/djRZ29sZUoia1/yCKO4/K9gcf1cZqBCHmdLbKcEDTcKaNJ1OcnxUm/lkfc+2Pf1BJmXZ0wjQAQ30ygkoMAOPqYhpOkHvpLLABC9xQd4NCT1UVYA6Wjw3ss5lNTOfOgdvukLFvfVvrbSjO2TswtGU8Gwc0DTPGeDJpqC8zVKaezAVU+89Mt6UTptEoY5JfNcoANAQcVxfTcJLcS2eBJi1gvBtTd1MA0FAzjV4OddQIRH4O07kzNgwVgb0H1LNhKC0F9eet4tk4oMEMu8GTAX356jtvyNzpr9uivmxYZUz6M9GfANBQSsZplPl5+bt9bzULEE4IKkYzLQeg4WvW3LAXDr0bP4dRfx6EZ7Pj0SfRRO1epT5vBc/GAQ0nXy0ns+TJfAKJ/5ongxYABCI/h2GVMdlPkGHPGJIAHHXZT6u7fW9FCxiwIe2ZjDSCDckC7eh3w+Q/WwmoZ7OPns0xJQlsBc9mSwNNJz2Zej6mJudPD0YFMeHRMFTmhrOAs4C/FmAoLQ+PhsKcjR09/c7bbEXPZksDTac8GQMyZJWxup8FmIa6TCKAgxl/f2Dc3p0FaAF6N177aE8JmgWeVBXwWw16K3o2WxNoGI+F26zsMghiUhjz6tvMyXzle06GIBKGC62sMuZiamrLvfBsCDJuOAs4C7TXAh7YLFeDJiutgoefWZslz+aw7HjsSRXkpDCn5mzwG7GZVJ+3JNCYin/Wxlx7903tJTN/9pSwvwzbMvuVkzGeDMUwCTCaj8HrqMvHtPeXxX2bs0CDBUzepsS8Dbwa5m3YfoAFnn6G0eqeDfrXDByAgsC9x5GzeQJstIObTkFgawFNzZPRrpjQKmOdzJW3XtOKf7/rZAgylIyhJ6NJf9c3puFS756Xzd7hOh+1e87tynobkgS8Lp4+ezaQq4lB+ZkKAjsff0brbDabNtqWAhrjydS1yz77WFWYc9AuY76mWvGn4t94MqyPoRgmgcbVx3TPD5A5UnPnu16w4Xl3zEFjveA/87zSgzH1NgQainPSy/HXs4E4LlQCEtBGYwM1ejabTRttawCN8WRq/WRm0bDs6tu/h4bZl+KndpkBGFPpT4BxqsvB/sFZDUTMj0wrQGPmwsq/nsvdCJYFzHkmwKgKtPFs+DvCh0+HW9dGO3wXcjZPyRAaqG2WfjZbAmiMJ2P6ycyc+ES7Y+bQT8ZP7bKVlf51ZhnCZ+4HxqertYXdmh+YlT8k/HFhwpjVVCs/u9XX8TxTn07ZhCvIHvqZYxneyoQd+Zzn2ahA07Nph5KA0UZLoJ8Nu3QOHzm2afrZbAmgYXMydsZkR0xKy8xCjdnPfjL8AWG1PxuSMVzG+hhKyrhK/478ZqzrS/nDQkBhnH4loHCZARqzMyxaczRiigEa3niYYQBIQ2sObIxZAvXMU2yUBAg0rLUxsjV+ejamn80Q1J5V9RkdO+nZsKlat44tATQ5JP6nPvlApj79CAyzj1Qws1zIg2HmTz+ZRk8mqUn/Hs3JsNp/6aemW6fM5jtu84NifjwINAQWgyUKQFhmwIXLGz9faRGe48Z6KOKLUd3muuZzXcb3WEEBhx+6ESgL6LkGG42kgHx5UTK1zp1+aqSZfjYU3hy59z4ZPYrHsQckgeZp3To2NdBUikX0lEmr+vIVaJfNnPhY0mhiVpyb9eV88QfE82RqzLKaN+M8GV/MbWWn/CFZ6ckYD0Y/089xZ1t75pcSgoznQzTiehw8//yHAOIBhy7RcggPaLx1uJRAZMClvr7zbGjBwA2eX+PZqIoAcjcMp1Ejzdyc+HHQvWCipdAsbfjIcdkJbTSqP7NLZ7i314+v83WfmxpoWBczf+ormYIXc+29t7WnDMNoZJj5MYwnw2r/FFgkrPh3mmV+WNrOPs0PiPmxMJ4Mf1T4mT7wD5crsHABhn7asLy2WIGGc4DAwTfGf4Ujq6CyEmy4rgKOt7rzbGi3gA6eY84BaqRRQSCN3xCqCPjq2eA3hOEy1tWMPfSYjMK7GQArLYa6m24bmxJoWHRZzuWENObJD9CCGSGzGTDN8lOTvpwf3qE2ejJ9YJclMUnYbtmNYFqAPxw382SM96LrYD39gcGPjAIQFlYBEHRTqqGwLOKZ63PwbPdgvVAVS/QZr2sg0+jBePPFW79xObdXLwcbcR03gmkBtonOAGiy8Gra4dnER7crOWAEIbTtD9RaQicSKtAZTAvdeFSbEmhK6XnJXJ6AtAzk/klj/uakFOZmpJzP32gBC0tu8GQANKbdsoXdu11YtoC5O13Nk/G8l6UcDPBiGdCUCTRkDcJrrUCJt4RHJRTRIwxXyxLFTU6Y6hK42w3hBymyEmjwniDiAYwHNs6zsXyCfd4dbzhUkBNA0w7PJhJnQeewFnSS9jzM9gK7xiWaGvD5L7W3+00FNKQxMyyWvXpJpk98Ck/mQ7n+8fuSBejwsyrvNC0O/mA4T8aiQdu0KwKNssjwg2FAh+8JIh7Q1Fhm/LwGLNVIj1TRllfQgjeERwR3lFVUdJejcakgRMoRxhyLlPISAtGEHnUFj2ouI4L23xEkksMAnpUeDr0YgtEyzwYr8T3nlxvBtUC7PJsQPGdSn/sALtuOPygjR++XkSNHpW/Hbi305GdBH5sKaOix0HOZ+/pLufzmqzILjyY7eVUWFxY0TIJ7Uavnw3kyVs3Ztp1xFnjAsgQoBBgFGgUc3LEiFu+FzHAzgeRrBEnY6PYd0rv3IJ53ShSJ2gji56FYDD8CPXrsVYBJtVCQMvKAJRBO8qjTyqCvUen6VQmjWDhMwAF6mHljwEWXYQ/Gs+FyBzRq0kD/0z7PBjcdmBM9/f3ShznIhmm7nnhWBu+4Sz0dejxBH5sDaHjnibvFPJL/6TNfa/L/6jtvIvl/Wsq48OnN2BzOk7FpzfbuiyDjAYgHMqt5MlxGoCkDQCrwYnqGRvRuMrFnn8T2H5IYCuqiqUH1asLRXgCNl4urordJpVRUb6aUnpPc1SuSPntachfPy+KVi1KZm/bABoDEGisDKB7geGG05cucV9Pe2bGxb2ubZ0NyEW5s2Chtx6NPKDkgdfAOiYMcQIFOdZc39if4vtWmABpT+Z8+c0o9GdbKaIfM2WlPiZnxD4vD3JHW2WUuJ2PRuv7tajWQWc2TqYMPC+S27ZQ+KuuiSrsfVNMeeDKUCgkhN8OQxbILvHbDo2Fa5GkWs1kpzM9KBqQUqlHkoBAu169IGB6PCZcZwPFyekv5GwM4nGsuhObfnLCx57Z5NpwLAJQYbnxS+w5ojQ09m9TBQ4FXe94UQFPKLEju2lWZ+fwTufTaSzILBYBSOq3yMjYmktnHkifjVfyz2r+f7LLaHa1Zzz0H0wIEGhMyYzKXr3kPwpCZt5z947E8HNFEf3gbQmWH7pL+O++WESZg4clQ/FDBZR1/Ir1s5gwzCKFNI4y7cPILKZ76UioMpQGIIhBxJdCwlXcj0OiNTC18RsBxQLMOYwdglSI82gVlo/mrIGD62AxBMWD3M89rS+jE2A6hokBQx6YAGib7r3/4J5lC4n8KiszZK5d86StjPBnKypiKf4IMfwzcCL4FbgU0LMArMjeDJH9ocEQSKJAbehB0UtQuxIdHJMqcDM/1es+3AhmqyuHB5GemZQE1XbPvvyu5019LlWE0kAbY8E6BBs8MwHHXnE8EHuPVuNkV/LnFI+TNCsHGbwUB3uiE4VH37dyN8Nlx1UPbdv/DGt4NqqW6GmgYDy9lMjIP+vLlN17RBmaZyxelCHqz7cGLnT8I2ksGnozTLrNtYf/3VwcagEkJPwr8YTAsM3oy9HKKWCkEKmnswB3Sf9e9MnL/Q5Ic39uUJ7PyL6l7NhMXZPrD92Thy8+kcJZgMyO9mFgEFXo2vJHxWGghiRJosMx5NCutGdz3nF8MoxFsjDZavc7Gh8PuBb05uYsyNcdl15PfkQH0s4kmk5irwVMO6GqgKczOaLKVOZkrqJdJn/lGFkkrRVjC5iDI8E6Wlf6U+adIJvvJOO0ym1b2f18GaAgqBBoCiyEGKNDgEFD9ItE9+2XokScldfdR6QcBgFIgTXkyK/8UfA9rdih9tABiQBqtw2fffUNKF88JSNN48CbGAxUTNiPQmGXOo1lp0OC+1znG+QXvmHI12mZASyswBywfNr2aHtDsUwdvl52or6EuWurAbcjhDFv+ptZ315VAw2QrY98LE+fl+gcImUEwcxo6ZjlQmW0PXuSmM2bC9ZOxbd627q8OKvjRV6CBO9OYm1lEbmYRd4N9t98lY899Xwbg0fCukUwfG4MMSHrb8ydPyOQrv5bcN18qC62nzkLzwrA9cGsUaOjV4EHwcaN7LGA8G9PPJofCTj87dSZAeR6BHhqFN7c98LD0j+8LXH1NVwKNqZeZxQU78epLUAD4VKhrtpjLWp2NxpMxnTEJNJSVIfC4S9+qqduyM4IKL3iPCLBEAjC5GYJMpX9Q+pH4H3/+hzKAOoVmkv+3+iNMCC2NXM3VV38rC5i3VTAjw4VcPVfj5WW8Ik6G1NRzdkBzK9MG7nPPs2HOj56Nv506yYKk/tkwPPDxZ59Hw7Qjgauv6S6gYQgCJ45dMRkmm0Ll/+W3XtfwWZWyH/jM1iCQhAEovNCNJ8PQGe8uHcjYsnJ790OgKdSABtEN9WbquRksqPT1S2j7Lknh7pAXLMMQfowFFHFe5byFF16aOC+hhTkPaDC3TLgMkTTN3cQw/wg+bnSfBYxnoyKcaAltPJsK5iA/szVIDiDdnvN11+NPo63A/RpOiw8Hp76mq4CmXi+DIrgrb7+uYpnzqJ0pAHgYA1euqoWzx8uaMfleAEsC/WQINAm8Jui4S96CgTu0CwM0JYCKoTcboClh+oRwYUYPHpYBAM2Ohx4R9gPxY2SvXIY00gcyD6DJf3VCKlPXECpbIgUQWDxvBjR6BzR+nIK27ZOAovkahPsJNDn0synaztlgvvD3Kob5O4CaGopv7nzsaQUeUqGDIFHTVUBDif/89UkNlV16/XcyC0XmAhKsbGJmc9BriYK2HEdluNKYATSMmbtYuU0rt39fjUDj5Wg85hlf8xFGcWb8nuMKNNvB5EmiNsGPkUW316kvTsgcijizn74vlclLOr+UaYZ5Rq+Gr6N4dkDjxxlo7z6ZG+T8IgONjdNIfy5RRQLLbI4IaPkxEFeG0AZ699Pf1VBafNv2QHTm7CqgybHwDXeBTP6TBLAAuihJAVUUvtkcBJk+FOaRXUZPhrUOvGNw3oxNK7d/X8uApsGr4R1nAe9DY7skcfQhGQTIjN19RJJon+vHyOBmafKLz2UWczn38Z+keu0SAGUpH2O8GQc0fli//fsknCjrEHMsp57NomTxu0WwsTlCILMwp9g/vldJASQHkCSQQKFxp0dXAE09ZIYw2ZU/vAag+VA0ZIZEqs1BMGHYIgYPhhX/BBqCjIuR27RyZ/bFi51Aw+QsizI1fFbL1/C1Ag3UcBPHH5Yh0ER33HW3JHE36Mcg0Fz98guZBS1fgQZq4x7QeCEz1msRZDj3lHzibnL8OA1t36c3/wA2oD1TQaAAD4fLNOxv8WgoUcMQ2uix+2Xnt58JhERNVwAN2WSFqesy/fmnMgFaKJuYUbSQdFGbgxd4jF4MgIYhM4YtXPLfpoU7sy+CjKE2a5isBjT0ZAgyZlmog0BDYDHhMuYC9X1tGW903DzszNyx+a1mHpKQwhAaczYF7dJp17MhHZ+ir8MIoY1/53sycs9RiY1uU40+m39PM/sKNtAQ7XFS2BmT0v8MmV15+w3tnKnChZb6yzQm/5MoyGTVfxzhM4Yw3Oh+Cxhvhm14CSqLmDfGqzHPJAeEOwQ0FXg0SyDj5WZUmiYEwMEcdAoB3T8HG/8CzrV8TT0gAzaabXKA6V9DEdidjz2p9TVsKcBOnarT14HftUADjQmZzYPKfAUSMwyZpS+cleLsbM3d5E9I64N3i0zAUo15AL1H6NHwLtLBTOu2DcIeDNAYRQB6MvUQGj5UBhpAqNNAw0JNk59hyEw9m9rcdPMxCDPJzjGY+UiPZr5YBElgsd7/yM43eDnl3qEhSe094IXQKFEDBYFOsdACDTSGZTZNVeZXfiMzXzFkZleVmWBiNMycGrOdaR6EvTTegpiwGQGFoTJ6MQZodBm9HCyLwKNJ3vctGW5TjmYGOZrMR38U49HwZqcHE5IAQ6ChV8MQGsHHhM+Mbd1NkLFE9z43qj37oYlmVJ6HD4OF9p0XEEI7Jp1ioQUaaOosM9QcTH7wR8mQZWaxMJMXKwkAjRpmTo25ey9cc+QEGYKLARsDNCYX44GNFz4j0BB4Cghl9Owcl8H7v6UFb+0gA7DgeO7DP0r5yoTEEKplmIxgY0gAq+Vp+Ddy3rqcDS3R3UPJAZh3fmmiGZVnisJufwDz+njnWGiBBBqGzEhbTqNR1OW3XtXcjFeYaZdlxotVqcwImVEs01X+d++Fa0CFfwFZPAQXplgN6PCiNqBSRAMaejQEHsMEYsycQDP8wCOyDZXV7QCa6wCamQ/eRffNCc0JEmDouRBw1KNBdzQvV7Pk0SjI4O9SoMF6Ziy9Mkvcc9AtYOamUQ6g4rMf9TUxtLjwWGgPQDkAjdLQyE+llVC60a4RSKAxWmbUMLv4u1+hQPMzVb61XZhJkEmCxtzH6n9X+d+uOWf9e8wFWwcbAIguwzcRSAzoMDxGgCkAaIwUDT72iukCADQEGGIHQ2VkPMYUaEBKAQCxfQDBRUNoeK3AwpVrr52Ho6boun84T41yQBZMtIwP9TUs5KQC+TA0/PZ89/tayBlDK4xIPN42ewUSaApoEjV/5ms0MvtAWzPPQ3LGppZZY73MgJH9x0XLi9WN7rBAHVRwuCY0RtBYthzvCDQe2HiAwrg4a2YYPqOHw23p2TB01guPZuTBR9vq0Uy//44UG0JnnIOGEMDaGoZyCUB4qSDjAc3SPOUrTluXw+mOebvaUZo5yBDaPFhotutrjBbaALXQ0PqZIbSBg3dAsmZktcPxZVkggWbh/Bk0MntVrn/0nsydOgl683WPZYYfBBujsV6mv1Yv4yr/bVi2PfvgLODFaWaDARq2ZDbLeCRLy2tSMwCXPAEGD35WD6UpC60q8V3jsv3Bx2Q7Ct3aETqbBIty8v23JY8OsSYvY0JlCjhAlzgezNUQSMyj8YaIQAPHZxnQcBnX4bMbwbcA5yzDvfSyF/yor+FcwCOOWprBQ3fKtvseQqO0Z6V/38G2GSdQQMO8DIszZ9GB8MJv/lE7ZlKp2ab8Py8+imVqvUwtZMY7SDeCaYFG4DBHaACE9x38nFq4nufivedFq8vxj/FoCCpanLmKJ8M2eWXUrPTt3idjDz0qY5Cg2X74TkniwvRjZHDjNPnVSbmGtuPX3ntHspfOSwS1PVF8mSEFNHo2jcwzz3PxQmfm5qgONIAWzmRO55Uejvk73Ew3lgjeM+coJWo0hGbqayweJtsJUNGZHTn3vvAjGUK/JS5jvsbvESigKc7PSebiOU3+UzRz7tTXUi4WhOQAG8O7CFkvE5FB1ssAaLywhLv8bNjX9j48sFjyXMz+DdAYD8a81+Q/NiLQlAE1wBQFGl7A9GK4/mqeTAU3HqF4n/Sj5mAH2Dnb77lXRiHh0TfsT6fC7MyMTEFOafLzz+Qq2JQLqA2r5rMSxjxfzbMhkHjUZ0MKAJAQVPROFd4LDGOAhTO5DjwrbqD4mfN0zCwK3jPnJsO4VHie0/oazGK853VgY1DFmZTnwUN3qOgmtdCS6CbbOzBoY/dr7iMYQENjwm3MIoQw9fH7GjKbRNgse+XSmgff7Ie8GFX6H0BDlhkbmrkLr1krtmd9Xly8yHjxGfYYrzguX+nB1IGG8wgrcH3j4ZjnRZz7KtS4Q2huVsVNhjY5i0SliqR7CElRSnb0IXQ2ggrqwX0HZGDHTon19/vyxxYWFmT+6hWZQ1+aaShecN5TUknyeQlXyxJGrD5cKkoIPzZVPrMDJ/4wAyDmmQBDLOEcXhVoah4O3RwFGayv8x3r870bwbKAzm2c58bOnFQN4By2Ofp27pbtCJ8xhDZ6/EGd934rBgQCaIwCwNw3J2Xi5V+rAkCGF9/CvE37KrAw+U+WmYoV8kfG6je4ndmwgLngzN2cAQ56KOYzXnzGg2kEGvVacBD8zCxnWKwMUAkl+6UHoYMeSHH0bhtTJk5vH7oTol0z+6zzzq63PyXRvqREAT5h0N79GBXSWAEqJbS9KC6khZ58YXZGFtHmuUJdP7S+YCuBIqSXFtlrKbMgkXJJw2sGUJSFhoMj6CwDGr7X5Uv6aIZIoMCEz+gJuRssP85s6/vk/C5rzhA33vBslBxgKaJjji7aPyBJ3FRRdHP8ue/J4O13+q4YEAigUdFMtGKeRsz6wksvygxyNFQFYM7GxuCFxQuUasxDMU9ixl1oNixrbx+8wMwwAMEbOS5n8MB4Jo0AwvW4DsHF+7wGPriBqKLjYAi0znA8ISHEoQWhsTAonQow6LEewyMOiY44gQYA1AuwoRhhJwbFYYsAmRIApcyeSwCahWtXJU+wuX5NKnMz8HayUgUIVfI5qaL/UgiFyyH8IBlQ4fwm6OBpGfB4n3uhNfox+FjXMYBl/l4udyMYFuCc59ymRM1soagFnZzfvPGyMZiT6cHN1DByNHvRspw5G7aCZr7GrxEIoCGrbO7rLzRsRtHMNFhn9HJstWY2LDN6Mv0AGyZc3YXl15Rqfr/mwjKXkQEak4Mh0PAaU89Gcy0e8HjreSDDPAzX14E4dBihMIJJct8BiaMfR8/AkERRS0D9p55kSsIAlQjCaBGEUcMIqWkBGwCqE4PznDdVFYTIqvB2lBQDMCHwUNevBOBZnJ+VPPoxZRBuK0xelQpDbchfchBgjExNo4ej4AN3Rj0ZrGOAhus0Ag2vBXfjpaYMzD+cyqTcL2A+0LOxqfKsdGekDVJgnanoJsJng3fcraw0vwzQUaDhBUZAWbhwTq69+yba276PFgAntIumrT+YF5Fjmdmypv398IJamYtpBBoTHuM3c/lSYr8GNlyOhk/lKFrWAjzowUQZAtu2QxIID/QDaBLolMkcTA88lyg8mHawbHi8rQ4CTimblUUADnM4OXg5CwCaHMLKxetXpYSQm+fhFCRSKkgYDQAbPRxDICCIcKi3g+dGoFGQwTIFGqzgrcm13ei0BfxmoVH3bPjOI7INQDP2yBMgw+zXts+ar7H8x3cUaPTOTenMJ+T8r38hUxAZZLFmGeEBG4MXDcNmjmVmw5r290GQIXjcmIvxQmCab8HnzM1wMHxgesgs82ASSYmMjkkUnkscic7kbgAMHokR9OAAsLAyOoRQGnMuZN74cSF5R2j3X3MjxpwOC5apjLEI4MlNX5eFSxOSwSMPwkwJnk556ppILqMHYDwcTystrN4LP2CuhoCiXo++r5EI8NpcK86zoaWCMXht+MlCi+CmjEWboxCR3fe9Pwfd+YhvdOeOAk0JidDs1csaMrvw2xdlFgwcmwoAvGicllkwLpqVR7EeT8Z4Nh4YUc7fk+soIblfQbhLGP7qg5cCQInt2qOPBAAmCbDphxfTm0yu/NpN8b6YyWgOJwOQyQFsCpcv6qMEACpnFxBzgXeDMFyUtTkIB1IRGpdCDWQ8IkBj7saAC5fpa6xM4HGjsxYwN2J+aaFpCA03YENgWu79sx96DLQduyQKQozt0VGgMSBDBYDJD/4EmudFL+EFJLcxnJaZDSva34e5gNbyZNikrJ7gx3wwCX/e4VUYJgNzhh5M3/7bpG/PXklC4p8JzSiS+mSN9TCM5hNrzL5FmtsjPZxFgAlZayWQCAog0mTQPC178YJkz51WD6cKxmYY4TTWiRmiAEHEe41nVRsAsOCrzXK+dp5Nc+fC77V5rfimhcYbCjz6cJO2/YGHl+jOABvboyNAoyEBXCzUM2Nh5nVomqXPnYFwJtg1Foa5WBgyGwDLjH1mXGGmBcNa2IUBGWXR1PZHj8WEwvg5QcZ7XwMb/Pwt4lFlBTPCZD1kj21HmAzy531o5tS3azeKK0fgwfR3NKlvwTxN7cKQCIrI4WQRcs5eBtigSWAe7TSKk1dkkdcTwmkh5Hp6QKiI8FEDGyUPAGx4rZhQGwGHw1vmKNBqjAD8Y0JoVHeeBwuNvWvMTZqNw+vF9ZTafxC5mge0kJM6aCGGmS2SYzoCNBUUopUyaZn+/FPNzUyf+EQTm7bUmXnBMBFKOvMg6cyMy2OZdxnZODVuHxuxQCPIEGiY6OfQCwngYhL/JhfDUJkyzRAqKyFUFhkalT4wZajR1L8fSX66+WCS0YOJoAhTczD8saz9YHp738T/woZKpMAPUJnXFD0cMNRyCEcvnDsL4sAZyeJRnp2SKEJplLmh12KaqxF0aCouYz7HAA3fG0DiMnfddHYO8brheaY8zVyN7mz0+mwcGXOYJNCMHDmmuZqRe45KlMxMXFO2RkeAhu5+5tIF9WQuvvwrmfvmK6u5GdMxMwmg6cddMBVw3eisBVaCjAEaXD8AE0+HbGUuZpH1MKAgh5CHCQ+OSGz3Hhm47TBABkAzPi6UOu8kLbmzFr3x242HU4AnszAxAbA5I/Onv5LCpYuoxZmWKvI3ISgN9IDtuTJ3o0ADSDHAY4CGzw5sbrR1J5aYjpwZ3FiYjpw2jsPkagZvPyx7nvu+ejbJ3Xs1DG1j/9xHR4CG0jJTyMtoboZSM6BrErHxj5W/i9Iy9GQYMnMdM62YtKWd3AxkyCYj4NQfmpepscu4HPUwkkJR5fg+ZcSkmI/ZuUur+HsSCYAMQIi/jHy4odePejgAk8VcTtUGslcuIyx9GkK1KBuYOC+SnpUI6m8aczdevmYpfwPnZhlN2oFNMCYXrxOCDUNo9GwoVWNl4PrxcjVQLzfSNHimVI2t0VagqedmTjM385KXm4FrX4S7b2PQWLwonAKADWva2cdqIKO0ZeyeHowBGU/0krkZLEeYrEpVWYTKoqyFQUfAEVQx94/v6WgFvx2LtG8vRnFgYeKiTENtYwEda0u4qasglBZCWQGZaQyj8ZphqJnPBlS88NlSCM0sd5DevvO38pvMteSXYgCbo7GI08vVPI/ogb1cTVuBpp6bQU7m/K9+LtMnPgZrJq0KzSuNupH3TgFgI1bzbxtzYRgw4bPmXAgmNZAxAEPwIQGA70OIF0f3HNBE/+AddwJg9kHefARx462V7G/1zJhQGhUG8iALLMCjmfv6pBIGShfPShUFn6ao0xRxGsBhuMzU2xgAcmDT6hlpfXteU34pBlDZOZpKIVdzXPZ9/yeas7GVq2kr0NRzMx+9Lxd+90uZZ24G7l8VScpWB++0nAJAq1a0t/1qIHNzT4Z5GjwQCquCVRaFy94HSYwUxP6GbrtdEhDBdLmYjZ8bAzg5iHTOnv5G0hCvzULyqUR1dIBQaBF5G+fZbNzAbd6SN2R+9K0JgXTDguYB5Gr2fvcHoDs/iOJnO7matgKNyc2wBcD1D1k3c8nLzSAZ3MogyDBs5hQAWrGivW1XAxnjyTTWx3ieTg1kkPhnqKx3P/rAwGUfAMiwwp8Jf+ZjXC6mhfODHybmbjRvA6IAFQXmATaZU19JHmSBMhSinWfTgn3bvKmyNAk21vvWmFzNbtl2/8Oarxm1lKtpC9BobgaeSxocf69u5n1NUFIa3cagm8/iTOZm2AYgDlR2TBkblm1+H6uBTKMnsxQq8/Ixi/gKqiz3QKY/Pr5f+u68V5KojXGssuZtf6stjGdTZ6UBZNKffyL5i+ekggLPEEgCbIxA78aE0Ey4zOVsbmXd9n1urjEqBrCNQA7kgBJIAgQgG4MtM0i8oQba7qe/Kylcj61KN7UFaJY0zT5DbuYXaAcATTP237CkaaYyM6Axk2XWhyJNUjfp5bjRXguYC2C1nMxqngybQKCtl0RRfDkE7v4AwmX9CJXFobrsWGU+nLuaZ1OpsdJUpBNgM//VlzL35adSgio0gpeCsljNzzTmZhqVBBqXuxs6H87TOnbJa42KAVkUb5KFlqUAK8DGxuihBhrAZoQaaN+nBlrrLZ/bAjTsLZPDJJ765EO58Nt/lNmvPodAoJ0WzQSUGD0ZQ2eusWdsGNztY/0W4MRXai1+zEi6NJX9hsLc6MnUPRx4MpWBYUkcwN3TfQ9rbFiLMJH0d8N/C5AkwOJO5kqvf/QnyZ09LeH5GQlDvHOlB2M8HFKfCTSqLIBDVKDBe3dj5//5WvkNvKEr4gIzigFsJWDDp9GWz5BwGjp8DzTQfqQN0hK8+UNh9EZHW4AmjyTk3FdfaN3Mlbd/j34zYLwAjfHLtNHj1u04uRm7Z8hsOB5Tb8bdYbVk0g1tzLNIt51Ao6/x3jDIDOAsAc1STqYHk7fvrqOSwoRmTiaB9smsUt6sGmUbMq6PG1EzjWocObSVZs4mjRvALDybRdwUhnF9NoKNARoCjMnn8HNzDbrrzscTdZNdm+uOXs1MvqAhNHMN3mST9S3mjQOiQql9B9Cv5inVQBs8zH4129e3/Spr+Qs0/OHBhF3Wb+aLzySHroE2Bie3UWdm50zmZtxorwU42Y0nQ8fdTH7ebbEmxgOcitKW9TVXqDUm60N9zNADj0gKFGbnybT3vDV+m/Fs0qA+z37wrmRRb2Maq61ko1FBQMEG154BFwKOvuYPVOOO3eu2WIC5GnbipGdjM1eTQLvz4bvv1VxNvV8NAAh3903/Xb4CDanLZSQYZ09+IRd+8w8InX2gIMNQmo3RmJtJ1nIzNvbr9rE+CxhQMXdRHrMMtTIAGe81gAau/SJuNujiU3mZ7yPDo5I4dKcMIPY7cvS49EFaxnky67O5H2sZzyYLqZrpTz+WeRR35k6dvIGN1ujVEHBMrsZ5Nn6clfXvk7majB+5GoTKCDajxx6QvS/8WIbuvBuaglBO38ANva9AU87ntep/6tMP5dwv/15mIKJZLuSEE7vVQUxlbiYF4be+aERiQFpOfDfaZwECDT0XDZvhNZ89IoAXHjMqzCWCDC6GRfS+oPpybM9+GcTkHWDIDLplMbRXdqPzFiigbfT8OeijIYQ2h5vCAthoVH8Oo+maMtFwfWnYDNea59V4+Zq6Z4PPeQ26q7C955LXXAHXV7YEZi/EVW3lahjCjsQSMgyizv4f/IWMHr1fqB4Qiceb/gN9BRpKyzBsNoUWzRdf+TUE/r6uFWjyJ2rjgxPZ5GZUnRneDCc+J7wb7bOAARoPXJZ7MksgUwHIeN5MCIn/GGiTqTvvgSfzgPTv2Ydq/6QWY7bvqN033cwC2jqaTdUunodng9YdJz+XAnTSKqi9IcBQH62XoTMCjXo0niYarzvj3TiguZl1/VvOGzyGpSlNY9SdTZShlW/lb6wWcKKubc93vqeN0djumWDT7PAVaMhooTfD4sxr772DQrGLzR7fqutzYnOyaxsA1s0AaMxd1aobuIXWLWDCZgZkGj0ZnfjqxZAVA08mHJEympX1IkQ2iLuiQcR9hw4dljgalbkRPAvk0UhtFsWcc8inzuH6LeK6jaCJWk+lrKUDJk9DyjPDZka+xoCNuxbbe07NtUhF57laXQ3D1bwObYwkrtuxhx7VIk56NcynNjt8BZo0koqXXv2tss3mUKxZgN6SjaGaZlHWzCB0hgcVmp0vY8Oy69uHmdiNIGNyMo31MvRk6NKX4+gXMzomSTDLtj/0CMT6bvcUmMHXdyN4FmB9G+vc5iFXMwIU09UAACAgSURBVPneu5IBI608dU3C+Yx6NQQar80APJkGz8YADZ8d2LT3vPKapLJzGmkJkgIKUA0g2NgYMegMDqJocxtUAnY/+2eSAomn2eEL0JAEQDd89uQJOY/czHXEe/NT1yGBkW32+G5Yn4DiNM1uMEtbF3BSK8jUQmJ8zSltPBm+pyuvBZlVuN8j26Xv9rtl8K4jsu3ofZJER0ynXdbWU9bUlxkFgQwkoq5/+hGKOU9I9psvpDw9KVGc1yguQg2haWTBAxXPs/HCa6btgLv5a8rsLa+s4TP89mYBMhl4NkW8tuHT9EBJPT66TbYhr7oPuZqhO494128TpABfgIYkAMpcUAHg/C9/LjNfgJuP/hgVJBVbGZy4jBs6TbNWrNj6tgZoyCBTJhmBBg8FGCxTGjO+ZjEUkSIIAPF9t8nYo09qhXHfzp0q9c/zuBGaZOtH7/ZwSwvgXDLGX0SDwuyVK+hl85lce+cNySNf01MuSZQhNJw+U1NjPBi+Zx7HsNMc0NzS0lZX4DXI69G2BloY1zCVOobvPgqggaozFAOoQdgMKcAXoClCfjwDxsp1kgBeBgnglCEBtObK8ceJk9r1m7E6P5vaGUGmDiqc2DVgqS9T8PHqZypgmAlCZizI3Pntp2QA7ne0D31mIBfkRvAtoOSAbFbmEfa+8gcUWoONJgyhgYnmgcqSJprmTQk0CKXxMwM+Dmzad57NtWm7X01d1fkQSAHPfU/rapJgjvaincd6hy9Ak7t2RWbQa+b6h+/J1T+9LZmJC3qH5JXzrffQblxPJzNIAH3IzwyB1kzPxk3kG+3k1xIzkTVsBpDR8BiAhe/Vy8Hrer0MlkXGdkkf2GWD9xyTUVQW920fa1mcz6+/ze33RgswhMYweHbymkxB2WMOApxZsNHK1y7XgMZjoTFUxuuQ4NIINA5sbrSp30t4HZIUMAuaM0NodkgBOL84t8nxvbLj4cdACnhIhtGzJjG2c91/ji9AswCJmStvvqokgBlMUErQ2BgkARBckiAA9OOumCQAN9pnAQUTAAgT/iZkRrDhe37GUJphmVV64xI/iM6Y334GuRl0xxzbIb2gMrvRfRYokvJ87SpyNZ/J9B9ek/yZUxIu5pWF1lujOivQ1LwZE0JzuZrOnGuSAhaQI8+AFEDQsUUKoATNMG4YSQrY+cSz0r/vwLr/QF+AZhbgcu4ff6a0ZoppUuLCxogh+cS6GbLNCDK8Y3KjfRYwQNOYm+FrejQaH8ZrsswqiX54MzslBYDZUQuZ9UCkz2mYte9c2fwmFlgvQgSXIbSrDKEBcMqIWoRzC1ooTS+G0QZej1rQiWeXq7F5BprbF69Hgg3ZZ6yrKcArtTHY4ZbimuxVs/9HP4Xo5t3r3q1VoDFSFtOffSxn/v7/1xoays0w1tvKIJzQdUvAmxmBeCZzNI4+2YpFm9+WIFPPw2Aim9yMARpObno5eaThwrjzSR4+IkP3HkfzJHTpQ8dMN7rfAhl05JxEd9xZXN+Zr05IBZGKOIIKBBWCzDKgcbmajp1wc62yT820im2yi7EXdWjloJhbpYIza2kO/sXfgBRwfN3SUVaBRsX52A4AJAD2nWE7AG3V3CKf28vNhNSTUfFMAI3zZVqZMs1tayYuwYQPk5tRdlnNo6H0P28nCjgzsb0HZDtCZkPIzaT27G0qadjckbm122kBknzSFy/ILHI1k394TQoXzkoMQVNSO0zRZt2jaQAaApC7MWznmfKy4XkAjRHb5A0hbxRbGVR0plIA2wewT80oGqPRw6Gnc6thFWhYKzOHXuQkAVxGjiZ9/sytvn9dn0fwBzJslgQJIAVUjbnczLrsZmslTk8FGUzWxtwMY7+cwAo4WKkc7ZVKMiXJO+6SXU99Vwbx3JsawF1PzNahuP100ALsIUXK89zXX8rl3/9OMngOZ9JQDSiCHLBEd1aJGoCLy9V08GThqwss4GSuBqQAhs/KLd7wm78mte+g7EKOhqSAQTQrZI3NrYZVoMlMnJdr776lQDMF1hnzMzZGVEEGHTSpBoDXjAm70T4LGKAhqNSBhgCDiVtnmeF9CF35YvtvlwGI8I09+C20Y97nCjPbd5p8/yZTyLnA6/z9P8o8RHIL576RKlQE6Mms1EIzQOPqanw/Nat+AcPbWbIGWcAJwClZytXQixkF64xAM/bI42Cj7Vv1+xsX2gEaxv/wozMPfSTWzUx99B5c7HNCV7vVQUhxKs2tWnHj2xNkTG7G5GHUi8EkJsiQZVbCSou4g+3dOS6D939Lho4ck2F4M+u509n4kbktO2UBRi5m4M3MnvhE5j78oxSvTEgPfgM8xYBwTXjTIwY05m9c+Ky9Z4zXqx+qzqyfSaGOZhTsM9bVDEC3kGG1tQqwrQCN6Tsz8wUkZ178mbZsLsxOCzWTWhkEGY8E0KNsM5IBeJfECeuG/xZYCTIaPiOoYAITYIpIzHAil0JhKUeikkRB5o6nv6sVxAnUzFCZ2Y3NZ4ES6M451NZQ8ePq6wihgY0WoWJAtaIstF4kbJT2jOvU5G4MWcCBTfvmA28Qea3aVnXugUZhbGhEWzzv++FPcb0fuWWfGitAw9htCbFbKjWf/Yefoe/MJ1b6zjglgPZNytW+iUDTmJvha2o70KMh0DAGXMDrMpshpYZU/n/8mec1N+MUAFaz6OZYZhQDmKuZeO0lbSdQTc9KBE0OYwihMYdq6mucBlrnzrm5UbStFLDUp+aYHPjxT5WFFr1FLtYK0JQW0pJFS4DroD5e+M0vNFmobDP8MLUyePfDxKJTAmjFihvf1gBNY27G9JlRjwYgwziwDAxJLxKEVADY+a1vSwo9K8hOUXd641/vtgyoBYxiQBq9pq788Q+qGFAk8Wd+VvOnFNysezR47XI1nTuRvIZtKwXQAeD1TbLP3hf+HAWcD0ofWgdE+1M3/UOtAE1+GmwzSIkr2+yNlyV9DpPOwtB2APiDCDSObWbBoE3sghOU3HvP/QZ1Ga+1SybBBa8NCYD5mR5IzaQgNcO6mVH0mqHUjBub3wIqTYOeNayrSUOaZpHSNPizV+Zq2FLAFXB2bj4Y9hlJAWSf2VIKSKE77q4nn/PYZ2gBEh+5OfvMCtCwodnk++/Co/kTamg+UO/GhlnZDqAfjc2oBJDAa7JX3PDfAgQZAowp8tIaGQUXssxMx0yvbqaEupk4vJmxJ76jJID+XeNKafb/KN03dNoCpDovXJ5QUsC1N1+RHG4wI8jTRFFbw9bqJldD78YBTefOFiMSObLPUFezUGsfYONo6MWMHn8AHs3Dsv3BR4QN0m42rABNGtpHE6/+RrXN5vGaRIBWh2GbeZIzpDQ7yZlWbbre7Qk0mo8h2NReM0TGh4bMsFxpzuEezc8kb79Lxp/7PtoAHHF1M+s18iZYz9TVzKJfzcTLv5I0auhChbxE8aMWAwtAwYYggxvERrFNRwho78nntcxoRJYdOClJA8Dhdd3qICFgAHqG1D4bf/YFSeH1zYYVoJlFb/Gzv/hbmfzwTyqgSdmZVsZKtlkf2GamuriV/bpt12cBAy5KBMAk9SZqDVwUcGokgFgCtTPovoe6mXH0FB8EzdE1NFufjTfDWqauZg5lDROv/Bq5mk+lMjMlEYANgcYQAujNNAKNuZZdfKI9s8CUJxigoTSNiVa0cgSUo6HQ5nZonx34879CQ7R7brq7loCGCX8yUKZPfCSn/tP/C1oz4rQ2tM2UFun6ztz0rPn8QSPQGJkZ9WBwV+QxzkhrRoEmSAAxxGmHjtwnOx97UvpBAnBj61lggaSAt99ACO0jFHCekSpIAWSfaRdOkgEaQmckBhiqswOa9swVXs8EG+vsM6N9hs6bh/7yv5QR/A7ojSbSHCtHS0BjOmlS2+zMz/+j8urtaZs5ttnKk9Wu96sCTc2TqZMA8D6KGO0g4rOD6Lg3jLuZ+Lbt7TpE9z0BskD++qTMIKoxh466c8jTlsBA1XAZQIVgo2QABRyPgeaApv0nj9e0dfYZbiDIPmPnzYM/+S9U++xmnTdbAppiGp000dTsOkJmF37zj0IX2sZwbDMbVtzYPjghDdvMkAAWkeBVgAG41IEGK9ZJAGCbMRFILr0bW88CrKEjIYjsM5IC8qA6k3nGkJkHNDXvBoW9XMYiTs3T4LXzato3X/xinzFkvveFH2n7ADZH603d2HmzJaDJX0d1MHpTkNZ85e3fC11oG8OxzWxYsfl9EGRWY5sxkVivm8FKVGkm26zvtsOy+7s/0G57seER7Sve/Le6LbrdAou5nBRmprWr7qXf/VKyp79S5hlVnT2qM4GGpIAloCHAsB7DEQPad/b9Yp8xZL7zsaeU5jyMHlTxbTeWN7QENPRmrqFgS2nNuJthC+dWBydgHHRmZZuhfoZ3QJyMbvhvAQJNM2yzfii3jj//Q2WbUSo8gvbabmw9C5TRNpgtQpR99tKLsgD2GVUCeiqLnleD69cDGo8UwNAZr2he1+b11rNa+/9i3kQy18p6GrLP2EaA13yrgy2dRxHVIM15DAXb9GpWjpaAZv70N0prZOiMLQEKc7Mr99/Ue3OXw7qZYTQ4I9tMq1Cb2otbeaMWMECzXrbZAO5edj/9HET17pSeeNx10Nyo4bt8O+3Amc9DVPekXHr9ZZlHlKOKEodIIaekAHoyRt2ZuRuTozHP7jayPROA1zfD4mSfzaAhGutqbLDPYoOQn0ItHTtvssxh4Lbbb/iDNgY0FWAjwimkNWvL5o/fkxwSgi3Tmmt3OFQCGEEPE4poutE+CzQCzVpsM+kfkCjuWgaRBCTbjJPM0Zrbd56C9k2G5sybTbLP5iC2WUK0QxbmHfssaCcLx0P22TT0KenZ8KaSYNPKIM05ASLQtuMPeS2eQQxaqea8IaDBHUy1DNd4BjLhZ37+H1StmXpnXNbKoCtNIgAbnGknzVVocq3s3227tgVuBjRejoZFX94jPDwqCYTNBtGTYgw9KUgEoOeJf9b+Avfp5rRA7ceKhIBryNfOsRcVwmesqVH2GbyYOvtMr3HHPuvkRMijLIWdN9kQjXI0DKm1MiIQ1aXO2egxtHj+yV8jZ3vsBjXnDQHNYiFfJbBMf/KhAs20qjUXtG1zSwcMkHGdNFuxYGvb1oGGgILJp14Nngk0BVDQFGjwntpm/ccedNpmrZl7023dqH228Mn7qn1mijVZwKkhNAINHso+q4XR3O1Je6eCYZ/Z6rxJijO76I5AVJdAMwLAIfAQgMzYENAg8VdlP4ophMzOvfh3yqGn+wwfzOx3Q8+uk+aGzGZtIwM0jWrN+hrn1tCbCUDR3QibPfKEejTDkJ1IgHHmhrNAjswzSFDRo5l7900pXbqggEKvxng0zNUYoHGdNzszZ3jDaLXzJm4cGCpjLd3+H/4T1NM8JOxHxZCaGRsCmsLsTHUB8VhKzlyExhFJATYGvZmBWK+qNVMniclCN9pnAbrQjNnSk/GUADwWmno0NS+Has0x5GRGnnhOPZqB3eMSc/Uz7TtJAf6mAupp5i9BZBMM1Ok3X5ZCQz0NlQLo0fCaNsWcDmg6czJ5jXudNxdlntpnCKXZGCQB7AEZgJI0/fiN6AVJwIwNAU3u2tUqu+uRbXblnTdk4eJ5s7+WnuNI/g/DBSMZgHc9jtbckjmb3pgTkKBCoGGxpveoNTnDsiKWsX4mcQCdNL/zggzfcxwtAbZLtOHOpekvdRtsGguUID+VnYRKwOcfy9VXfiO5s99oPU0v7hdjuJ5JcXZA0/nTzRtKXuMkA8yAFEDFABujf88+2fnok8o+o1pAvKFdyIaAZmHiQnXyvbe1UJNdNdn0rNVB3yVhaM0AGk5I58+0atXmtjd3OpyE+N/zbuDJFPEmz2eckcVwRJKgM4//2Q8BNMckNjiI+Gy8uS9ya29KC5QhplmYm9MOuxO/fVEyoDv3VMrSi2qNOMNnuKY1dEbvhq/x4HXubijbOx1waeu1rUADmrOKbFo4BG0bcPR+Ldzc/tBjy9oGbAho5s+eql4GX56FmpSdyU9PtXSYBBSylhRoEDpLOKBpyZ4b3Xgl0BBwVBEArk0enk4pFJFyTxQtm4/Ivh/8BEBzVNUAwljmhrNAZbEkVAmYgYrz+V/+HC2eT0gEy6LVMoBmqT+NBzBomIdr3oTTnPXaZwEDNDn1aIoe0PDmssVDiI+MqoI7Czd3ob4utf+2+h43BDSzX39ZvfCrX8gkgCaDxkfUOmplEGR4Z0OgIa2Z9TO8y3EeTStWbX7bRqCBA1NTamZLgBrrDDm0KloDDMAt3v+jn8rwXUdc/UzzZt60W5h6mhn0p2F93TzC6yEUbTb2p4lFULzJaxsXN59dLrb904GAwvCZbTVnah0m0fhwO4Bm7/f/XAbRddOMDQHN9OefVk+jLQA9msLcjFDFuZVh6meYmxmCjAlzNQ5kWrHoxrY1QENWCr0ZfTBkVgOaRXguVUjNDKF+huwS9p9w9TMbs/Wm3Ip3xXhoITfYqLNgn4UgTdMDr8Y0QnNAE4wzT7CxreYcgToI1Zvp0dyGtgHDaOtuxoaAZvKDP1ZP/Yf/C0ADrnw+J3SZWxkRuNWufqYVC9rZthFoPNaZx0KrAw148SFMJAWa7/9EBu9YumOxcwRuL5vBAnNfn5Rzv/q5Ak0VN6I9KOQ2QGOaoSFN4zyaDp9s2/U0DKH3xBMAmgfl0F//1zKC9iGssSH1eUNAc/mNV6qn//bfyzT6T5TR+KyChF8rw9XPtGI9e9suA5qaV8NlBmjKiT6JoKMeG53tfZ6aRnfY+3K3p01jgfnTX8uFl36ljdDKU5MSyWUVaAzIMGTm5Wdc6KyTJ912PU0YRKEImqERYG77q3+Kws0HkMPt0/D6hoAGRZrVc2jdzFgsQaZVrRy2BUghN5NEjsa41p08AVv1u1cCTQl9aLyCTa+jJsNmPTt2o37mPhl/5nkZOLCU7NuqNnN/940WmD97WiZeewn1NB/J4tVLGj5breMm62lcjuZG+7VrCUPj9GoyENdMo56m2GI9DcPoBBvmbvejtfPofQ9JDHJVPYnExjyak//3v6teRN+JeTDOWgUZGpVhMwUa5GjcxGvXNLvxe5YBDSbhSo2zKpJ90fH96tGMP/kMxDQP3LgTt2TLWyB9/qxMvPGaejSliXMSAlloNc0zBzSdnSrmeqcUDYHGRuEmwWYAjdD2oE8V1ZxZW9M7MLgxoPn03/6b6uW3XpUFTCgbI4bkP/vP0KNxdEcbFm1+H0wOmolnyAArNc6Yn+ndf0g9ml2PPi4pTCI3nAVWWiCNAu7L77ylHk3x3Clhnmal5pl5b4o4HflnpRX9f8/rndc4PRr2pynYKtzEDeiux59VhYDBw3dLfHTbxoDmg3/9r6qT77+r1GYb5lBFAPSfIdC4Ai4bFm1uHwQZUy1MkDFEgGUeDSYlVZvjt98FjbP7ZOdDj0g/5GfccBZYaYEFyNBcee9daJ59JPlvvvRUnHGnqx5MTVxTCzZrhZvmmndgs9KS/r43klMEGvansaUQoBTnBx9RmvPo8QclsXPXxoDm3f/xv6uC4iy5yastW4KTiwWaI9rorMfVz7Rs0eZ3YLwZI6ZJsDF3O41imuGRbZI4fEQG0U1vB93iXbub/zK3xaa3wMLlS3IV8lRz7Lr7FfK409dv8GjqhAAAUASAQ7BxQNPeqWFuMNkAbZoKAQihcVmrI7F9B5Scj6pHMwbx3SQiHxsiA7z5L/95dQ7MEvYJb2VwYjGmx/qZUQANCzbdZGvFohvb1gHNxuzmtlrdAusBGgKLMs/47IBmdUO2YSmvfUrQTLHjJoEGkYtWwSYGNfdBMFKZo9n99POSAmloQ0Dz6r/4m2oGHfSKlhQBXEfNNsyoNb7CAc0axnEfNW2BWwENmxsSaDRP44Cmafva3sB2x81eKgSgAy9VnPe+8GMlB2wIaF76pz+q2mjdbBQBXEdN21Onuf05oGnOXm7ttS3ggGZt+wTtU9sdN01rZwLN/h//lSqIbAhofv3T71YLc7NCtdZWhlMEaMV69rZ1QGPPlm5PIrcEmpBrFxCkeWJbIYBq7jH0otmGOpqD/+RvZOiue2U+m2v6Tw69+KMnq6VMRiqlYtMbN27gFAEardG51w5oOmf7zfjNawGN6bSpobMa68zlaDo7C6wrBER7JZpMyiiUAQg0wwCaDBowNztC//DCo1V6MxUkkVoZThGgFevZ29YBjT1buj2t7dE4oAneDLGtEBBmmQq8GkrRHPyLv1aPptDbfM+q0M+fe6hagcZZtUWNM6cIEIxJ54AmGOdhsxyF82i660yaQm1bCgEhyNCEqXkGivOBnxBo7pHF1HDTRgn9/TP3V6vQxalCC6uV4RQBWrGevW3XDTQo2IwdQsEm6mh2acHmHnsH4fa0aSywcOmiXGbBJupoCqeWF2w6jyZ4p9nUzNlSCAghB0fV5iFonh348V/KENQBqmPN19yF/u7JY6Bb8+eJj40PpwiwcdvZ3HK9QCMDwxKFBA2BZvyxJ2TASdDYPA2bZl/zkKCZePtNBZoSJGhkfkmCxgFN8E6zfYUANrYLyeDhu2T/D9C36o67JIzfjWZH6GdP3NsawuAbVREAsbxhKgKgYNNVBjd7Guytv26gSQ1KZO9BaJ0dlz2PPy0De/fbOwi3p01jgfkL5+TiW69D6+xjKV84I5KeqysDOKAJ3mk21z8LNilFwwJOLmt1DEJcc++f/UjbO/fefazp3bUMNEYRgEoAw2zd7ICm6ZNgcwMz0W4lQSMAmqgCDdoEPP6UpBzQ2DwNm2ZfaQDNxFu/V1HNkgOawJ9Xc/1TgmYG4poKNBYUAgYOHJLxZ6kMcEiSDz3etB1aBxq4VSzWTEC1eYhAQ5YC3jv5mabPhZUNzES7FdCECDR7Dqh68254NKl9+618v9vJ5rJA+vw5uaQezUdSunhWqs6jCfQJNtc/AWZWgaasIruttoDp30sVZ/xO4HnwmReatoEDmqZNFuwNzES7FdBI/4p+NPsPBPsPc0fXEQukzy3vRyML6EeDG0mqN7vQWUdOyZpfaq5/20BDGZodDz8myd17ZdsP/3LNY1jtQ6tAo6EzeDT0cJxHs5q5/V9mJtq6gGbXPo8M8NSzMrD/oP8H576h6ywwf+6MTPz+VY8McPk8Cmsc0AT5JPL6JyGAQOOFzux4NH07d0Pv7CHh886/+mdNm8Aa0PQhdMb2AE61uelzYHUDBzRWzbnld+aApvumAH8DCDRsF5BFAzQCT6uhs8TYThk9ep/0je2Q8f/qv2naKFaAhjkZp9rctO192cABjS9m3bI7dUDTnafetopzYtuYDN99ROJ43v8v/mXTRmkZaJxqc9M293UDBzS+mnfL7dwBTXeectsqznE0Shy6/U6JjYzKbf/t/9C0UawATTQS1tbNg2CdxVFF6kbnLLBuoEmmpGfXXhk6goLNp5+TgQMuR9O5sxbcb54/ixzN6y/L7ImPZfHyBZFM2pEBgnu66kdGoJkD64wKAaVyRcNn9Q838CI2NIw87m3C5zv++/+56T04oGnaZMHeYN1A09cvPTt2yeCR+2QP+PEDB5uv9g22JdzR2bDA/JlTcvHVl2TuxEeyePWySHbBAY0Nw/q8D9tAow3QwDjj8z3/079p+uhbBhr2CKdycx/YZoO9UaG4phuds8D6gSYpke07PWWA77wAoLm9cwftvjmwFpg/841cfOU3njLA5BUATcYBTWDP1tKBFejRFEsgAyxKEa/LFf4ybHxEk/3ShxtTPh/91/+26R21DDRs5Uo1AJIB+gE2vXjvRucs4ICmc7bfjN/sgKY7z2qxUpEFgAylaKgSsIj3rQzttLl9TKJ9STn+v/zvTe+qZaBhw7M+eDJJgEwfXrOQy43OWcABTedsvxm/2QFNd55V0wCNOZosPJsSvJpWRk+iT+IgAkTw/MD/+n80vauWgYZhs/7eXvVoEiAF9IDq7EbnLOCApnO234zf7ICmO88qG6DlQAKgR7NQLGr4rJW/hM3PetHSmc8P/2//vuldWQGaFNhmzNHEHdA0fQJsb+CAxrZFt/b+HNB05/kn0OQJNPBo0mCfMU/Tyoj0xiTan5IwnIpH/t3fNr0rBzRNmyzYGzigCfb56bajc0DTbWfMO17bQMMum9FEUrttPvp//rxpozigadpkwd7AAU2wz0+3HZ0Dmm47Y97xWgcaRKwi8biEe6Ly7f/nxaaN4oCmaZMFewMHNME+P912dA5ouu2MecdrG2jYzpnhsxAA54n/79dNG8Ua0JB1FnM5mqZPgO0NHNDYtujW3p8Dmu48/wSaAnI0ZJ3ZyNEQaBg+C4Uj8uR/fKlpo7QMNCzQJBkgiTqaGGpoKLDpRucs4ICmc7bfjN/sgKY7z2qZQIPamQxYZwQaFnC2MkL4bQ8hbMbnp/7Ty03vqnWgQXuAgRrrzAFN0/a3vsH6gcZJ0Fg3/ibcoZOg6c6TaoCGrLN5Ag3aBbQyCDDhSI8CzZM/e6XpXTmgadpkwd5g3UDjRDWDfSIDcnROVDMgJ6LJw/ADaCKIXoVCYXni715t8mhEHNA0bbJgb7BuoHGtnIN9IgNydK5NQEBORJOHYR1okBIJIz8TgvLLk3//epNH44CmaYMFfYP1Ak0oNSjRPQcgqnmf7H78aUnt2x/0P80dXwcs4ICmA0a38JW2gYaHFGL+HY9n/uHNpo/QeTRNmyzYG6wbaAaGJLr3oPaj2f34U5La64Am2Ge2M0eXPndWJt54Df1oPpLSxDmRhXmn3tyZU9HUt/oBNOYAnn3xD+blup8d0KzbVN2xogOa7jhP3XKU6fPn5NJbr6NNAIDm4lmppucc0HTByXNA0wUnqZsPcb1AIwyd0aNB6GzceTTdfMp9Pfb0hXMy8dbvPaC5cEbEAY2v9ra1cz+AxoXObJ2dTbCfZoAmokBzXPYgRzPgQmeb4Ozb/xPmATQX1aP5WMoOaOwb2Kc92gYagkwrZID/DAAA//8QXZDiAABAAElEQVTtvVmQI+e1JnYAFIAqoPal95XNJtlsNpurSEqkKImkKErUcnWv7w1P2H7xRPjJMX5yOMIRjrCf5sHz4IeJcDhiwhFexvbMvdopSpciKVEUF3FtNskm2Wz2vlbXXgCqgCrA33cyDyoLXdVdKCS2qv/vRiWQe578M7//bN+J/Ozxe0pSQ0t2xKQ3mZBUR4cko1GJRSI17M1tWqsEeDMXSyVZKJakgGkBU/4uFIuS5zx/vvQOSHzvAem756jsfOxx6d21p9ZDu+03oASmL5yTi2++LlMfH5PC2VMi0xMSxzMej0YkgU/cf+b5m/M7MOU7wL0FmtsZ+MzP45nPLizI9Hxe5hcWazqhCO9zLCaRSFQe//mrVe8r4oCmapm19AZrBZrowJAkD9ylQLP9oUeke8eulr4ud3LNkcDspQty+d23FWjmT30mxYkxBzTNuRVVHbUeQBONdQgB54mfvVLVuXDl2oEGKNcDjSYddxpN1dKvwwZrBZrY0Ih03XVE+u+5T7YcfUDS27bX4WzcLttdApkrl+Xasfdl8uMPJffZcVkcG3VA0wY31YAmU1iQGWo0i7VrNJGOuALNN//p5aolUDPQJAxoaDqLRaXDmc6qvglhbrBWoOkY2Sbd99wPoDkqQ4fvldSWrWGehtvXBpFA9tpVGfvkIwDNMZn9+ANZGL3igKYN7u0CTWeLRcnAdEagydcKNHjPR+MEmpg88R9fqloCoQENfTSdDmiqvgFhb7BmoNmyXbqPPiT9hwE0hw5LamRL2Kfi9rcBJJAdvSZjJz6RyU8ANMfelYVrlx3QtMF9JdDMAWjoowkLaGKJpETwnn/8//1d1RJwQFO1yFp7g7UCTWzrDkkp0NwnI4fulvTwSGtfmDu7pkggc31URk98CqD5ULIAmsWrlxzQNOVOVHfQsIEmCoCJdXZKFOazr//fL1R3MljbAU3VImvtDdYKNFEATdfRh9VHs/WuQw5oWvu2Nu3sCDRXPzvh+WiOvSNFBzRNuxfVHDh0oIHZLN6VVvPZo//HL6s5FV3XAU3VImvtDRzQtPb9abezc0DTbnfMO9+wgYZms3h3j0QTCXnk3/1j1UIJBWi6cfAUos66nI+m6hsQ9gY3Ak1xWU6N5dF0bNsp6Qce1WCA4YN3SmpoOOxTcfvbABLIjl2X6yc/12CAzPtvycKVi8501gb3lUCTo48GUWez+dqDAWLJTkn09QunD/+v/75qCdQMNHFEI6QScUnDhpfCdyZuudY8CVQCTV4TNT2wYedbKIomciZ27JaBRx5HHs190rf/gHT2DzTvpN2RW1YCc5MTMnX6FPJoPpSJt1+X/KXzDmha9m4tnRgHlFlEmjHqLJsvSKHGqLOOrpR0Dg5JDNMH/pf/felAa/xWM9B0IIGnC9oMNZpugE0Cv11rngSWgMZjAiAbAMGGLAGMrSfQEHCSYAIYevRJ1Wh69u7X0UrzztoduVUlkJ+alJmzp1WjGXvrTzIPpgCmMBgzAL+TDYCsAGQK4PvAMQM0/27ymZ8lyECjyeGzgN+1tI5UWroQmRrH9Oj//L9VvauagSaGzsVcGoY390GzSeK7a82TgAENKWfm8CHQkI5GtRks5HQRvx3QNO8etdORVwIaPvMKNjBelIEG8zoBMkZJ4+wazb3LTNCcgibD8Gbm0PCZr6XF092S2rpdOD3yr/9t1buqGWiiHN3AN0PTWR8YAjod0FR9E8LcIAg0tNESaFSTAcAUAkDTuWuvDD72TY0669mzT5Kwv7rmJFApgXlqNOfOaNTZ+JuvydyFs1IJNNRgqM3QR+uAplKCzfk9R6BBoiZNZwW8B4p4/mtpiZ5eSe/YLZze/T/+m6p35YCmapG19gZrBZokgGbg699SrrO+3Xul0wFNa9/YJp3dHIBm6vxZ5TqbeOOPMJ05oGnSrajqsGEDTRI+3N69twmnB//b/6mqc+HKoQAN7bLkOut3Gk3VNyDsDThyoQZDTYbsratqNHv2y8ATT6lG07tjpyQxUnHNSaBSAvMz0zJ96aJqNBN/flnmzp1eVaMhezs1G2o4tHS41jwJEGgmqdH4/plaNZrOwWHpv/1OSSIg4Lb/+r+r+sJqBpoIOhQ7FoMBBpNJ6ULZANeaJwGCjJYE0KlXFmAl01lq/+0y8tRzoKC5D/QzI+rka95ZuyO3qgQK2YxkR0eVGWD05Rcle/rLFYFGywQAZBJ4F5j5rFWvaTOcVw5lAcbn5zUYgM9/CZ9aWtfwFhkAVVUnpnv/5b+qelehAA1HLykAzGAngQZU0lWfhtsgLAmwU1GTsXwZBgIo+BB4+MFvzksfuEN2PPsjGUB4c3JgQDo6u8I6BbefDSSBhbmczE9MyATCmy/9/leSOfWFF2UGUNG6NP5A0yLPCDiuLlVzOwAhJQffzPgcgAaAQ22mZqDZsk2GjmBQCvLdnf/Zf1X1BYYGNNRkBmA6I9AQeBzYVH0vQtlgGdAQVNDJFGgAPvP4rR84B7sP3iV7f/BT7TzJ3j4kYiVDOb7bycaSwCJGxfPTUzJ2/EM5+8LPZPbkZ8rSnlRAWdJeLOTZAU1z7z9BhsBCoJmA6YyaTRhAk9q2Q0buf0g43fZ3/0XVFxkq0NBHQ6BxcfRV34fQNjCgoW/G016QrOlrMgQZ9d3gd8/BQ7LveQANNJpET48DmtDuwMbaEYEmPzMjY9BozvzmZzJz8oQkMZBUoIndCDT00TiNpnl9wIKBCDT00YQFNOmdu2Xrw49p5NnwD/626gt0QFO1yFp7g0qgob/GzGg6xekvoBxrDzSa3c/9RAZRJsABTWvf02aenQHNOMoEnH/xFwCaz6SjVJQETirpgKaZt2bFY9cLaLp375Pt33hSejDt+9azKx77ZjNrBxrsnQEB1GTUdIagAKfR3Ezk9V22EtCYdqPsALhXRVB999xxt+z6Hnw0dx/RJKwY+OpccxKolMAieLIKmVmZ+PS4XPjdr2Tmi08lulAA2CDpl34afLykTebQePk0TqOplGLjfpeBBtFmnulsQf0znF9L6913QHZ++xnpwTT90Deq3lXNQMMj0h+jQINgAEafOaCp+j6EtsEtgQYV8oqJTum967Ds+f6Ppf+uexAIwDoTHaGdg9vRxpFAESaYhbk5mfzsYzn321/K9GefSDQ/Jx3FRQUWDQhQwHFA0wp33YCG1DMTCAagCa1WkOF19SF4aPd3n9dp4tC9VV9q5OdP3IuABJ5KbafTyWAAAA0ZAgg0Lo6+6nsRyga3BBpoM6VUj/Qdukd2P/u89N95SEgBHnWMDqHIf6PtpEj6kvy8TH5+Qs7//jcydeJjiWRnJAatxkCGfhmGNDuNpvl3n45/vgPICECgmUMwQG0NgV14n/fdgeCh7/+N9MPkHt17oOpdRn7xrftLJXSmEuyutbQkgIYUNAQaF0dfiyRr2/ZWQFMEzbf0DUovgeY7z0rf7Xc4oKlN5Bt6awOaqS+/kPOv/F6mATQyNS7R+TkHNC145/n80y9LoCEFzXyNQBOBPzeCQWg/LCD7fvi30n/HISlt2VH1lUd++dRDpWKhICWowrU0kmn2EGhgOnM22lokuf5tTW328mg8VgANAPAj0OijKaFKXmRkG4DmiOx68jvSj8TNKKrnRTAidc1JoFICJby0+H6YQqLmhddekWn4aoqjVySSy5SBhpqMaTMcZNrz71IcKqVZ/9820CQjwAyBBkpELS0CUzvfD4Pw5e778d8DcO6WhZ7qS4pEfv3so6VFjE5oi62lkcFZgQYaTdIVQKtFlOvaliBDtdlCma0OjYY4cz4UVgWa7l6J7dgtfYg22/U4uM5QIoCqMf6s67huow0uAQ5O8JlGqYBLr/8JDAHHZOHSOZHZaQWaDoxPLIeGJUL4Iehwnsuna3zf4PM/jzw5ajQEGjI319Lou2Wxs0GkQez/CYHmHpmHj7faFnnh+SdKhUwGo5Z8tdsuW58F0NJAPgYDuAJoy0TTkB+mzTDrn4BCoGGH00gz/MZX/S69AxKHjbXvnqOy87HHpRd1aVxzEriVBGZQh+byW39RzrP82VNSmppQoMGYUn2y9NdwgKlAg+9kCnBBQbeSavjLObBkwTMGA2SgidZa8CwaTyAqNS1D9z4g+//mH2QAQJPBu6TaFvndT58ukQqcWk0tLUaVWcGmQ3oAOOx0rjVOAmsFmujAkCQP3KVAs/2hR6R7x67GnaQ7UttKYBbEmlfefVumPvlQ5r78TIoTYw5oWvBucnA5A4Ch6Yxms0UMOGtp1GZYQmT4vocUaKjRTGdzVe8y8tK/eL6Uuz4qCyDPq6VRTXYszrVIsLZtbwU0VlkzOrRFuuCf6YfpbOvRByS9bXttB3ZbbwoJZK5clqvH3lfTWe4E/DRj1xzQtOCdD5u1WStrDo+AfuZh2fvDv0OU6t0yOT1T9ZVHXv2X/1DKXDwPmonpqjcObuBYnIPSaPz3mwHNAhYq5xnU6ijI8bqOPKiszVsP3yNplGd1zUngVhLIjF6Tq598rCzOuePvSfHaFQc0txJaE5aHzdqsBc9AP0Og2f3sD6UX+TTrAprX/9V/WZr66iQYWsdrEgtdyQQb+miGHItzTbJcz8ZLQONFm3m8Zt53DRCAn4b+m45tO6XnwceUtXnk4J2SGhpaz+HcNptMAtmxMRk9+bn6aDLvvyWLVy6oD4Z+mA48/Iw2o3+GbAHMq6F1w/loGttJ+A5gguYYWZthOmMQB+fV0pIDg9J320EZBtDseJLMALetD2je/u//m9I4QhZzo1drOR/dlmDTBaBhuYAUohVc1EnNIl3zDgxoGEM/p4EAXkAA6WcINEqmCfttEpU1h7/+pJJpDuzbL12omOeak8CtJJCbRKmAM6fVdDb91muSR6VNYIwgy0Id/wQXBRrwn3UCZCyXju8E1+ovAT7/jDrNAmhYHiBHoAnhsF0jWzW0mRrNlkcelzSCh9al0bz/r/+H0uh7b0vm8sUQTkvEMQSEIsaqd2IZwQooBBofbDSPBh2Q03lMu1COdfu3vqtA07N9Bypr9lR9LLfB5pPAPBicZy5fUtPZ2GsvSw6RZxH0Jw4mjSGAJJvMoeGHwOMYQhrXT+z5D48RwDv39PadMvLgIzJy38MydPRB6YJPd11Ac/zf/pvS5b+8KrPnzoQiFccQEIoYq96JZQTnfVDxwps9gGGIM7OkyNrcDRvrzmeel4HD90oX1OKOLlfwrGphb8INFnI5ycG8PvnpR3L5pRdk9tTnEsVghvV0g0BjeTSu0mZjO4k9/2ExAtjZd+8ha/O31UfTB1aAzqHh9QHN5//Xvytd+MNvZRqV8zzOMzvE+qaOIWB9cqtlKzObEVyWNBjm0SwBzSJGnsrajKiR3c/9jcfanEpp1m8tx3bbbg4JkB2gkM0qi/P5F38uM597LM4xDGKCQEOTmf0m6Dg/TWP6R9iMADxr+tzp/N/19PfVR9MNs1kCRRLXpdGcfeHnpbO/+keZACtrETQ0tYKNYwhoTMeyo5htVkc01FxgIiPYeMwAAaDxWZv7oMmQs2gAXGfkMHLUMyZJN72ZBEhFQ07ECXCdnfn1PyGf5iNlcY6RxZnmMz8IwDQaK+1s5jPnq7mZdGtfFjYjAEEminfGADjO9v7o72QIeTRJ5ODRArIuoLn851dKX/3jv5dxVNBbxKiFYFNLcwwBtUiv+m1NmyHQaHSZDzQMCmDkGUGH84txlGru6ZN+UEns/QHKA4CF1TUngWolMInCZ2df+KVGn8nMlEQL82UKGq8+jUdBYzQ0BBqn1VQr5erX53MeKiMAQCZGjjO8L277u38hg2AG6OjyLCDrAprR9/9aOvUf/k+5/uF7qDuRA+dZofqrDGzhGAICwmjA19WARn00ABh2wEV8JN0jHVt3KiPArm89Lb0IU3TNSaBaCUyf+Uou/PEPMvUxOM+uIoAog5IB0GYILCzxbBqNA5pqJVvb+mEzAkRRTqSjswuMAA/Kgb//zxVwzAKyLqBBaHPpq3/6fwA078g8+IsWUeSolmYMAcyn6UfVRkahObW5FonefNsy0ABM1OmPcg+MPONnjvPwYURKtH9QkvvvANDcJ9u/9pj07HTUMzeXrFu6kgRmLl6Qy399E0Dzocyf/kKKkygZ4JvOOsvmM+bWeL4agpDTaFaSZHjz+A5g3ZlJVENl/swCrBl85mtpMRRDTPYNAGgeltv+9j9VU7vtb11AA1W4dP7FX8kogIYhzoWQGAJYcbMfZQO6ADQun8ZuUfhTAxoj06TJzCLOmE9DVgD63TpQGqDz8P0wnYF65shR6d6yNfyTcXvc8BKYvXZVrh4/BtPZMZn75ANZYMkAAA2TNpk/wxBnT6vxgMaRa9a3S/D5J6iQEWASbM1M2KQZvVZfe7ynVzS0GUCz+7kfoW7VneULWRfQTJ85Vbr8p5dVo5lC5Nnc+Fh5h+v5Qu2FHU9LOxNooNm4Ec16JLm2bSx+ntoMtRdPm/GYm+mjUf8MliV27pG+hx8HI8BRGTpwu4Y2r+0Ibi0ngSUJMMR57NSXMgGgmXrndclfPKcDSZYFoI/GGJy9qptejg2ffw42XQtfAjbQZILmhA80BBnOr6V1Dg5p2WZqNNuffEp6kH9nbV1AM3vxfGn03Tfl+gfvytjxDyR79bLtb91TdikFGjIEOKBZtxzXsqFGm0FzqQQaAo4HPJ4pLbXvgOx46ntI1Lxf0lu3SaK7ey27d+s4CSyTQH52VjJXr8jYxx/IpZd/J9kzpzQ503wzxhAQBBpjCVi2I/cjFAkY0NBkxtLN1GhqBRmeWGrrdhk6cj/Cmh+SkYcek3SA5X1dQJO7drU0ATbW6x+8I1fe+rPMou5EGE0ZApIe0FgRpDD26/axJAHrZDfLn2FoR56Jmrej5vf3fihDYG1O9vVpMaOlPblvTgJrkwDLicxPTckYCqCd/d2vZRYlAxLwC8axuYU503zm8mnWJs9a16JFg1YLBZr5efXV1LpPbs+cmW2PPqH5MwNge+8MkO+uC2jmJydKs+dOyyiA5sLLL8r0V1+GcZ5am6YXpjNqNFbaNZQdu52oBAgyQbPZqvkzsQ4pIiyx987Dsvu7P9C4eMbCM6rENSeBaiXAqFSyBDDv7vw/vyDTn38i0VxWYosLZaAxrUYjz2BOIwCZ+cwZ0KqV+M3Xp0WDdFMEmukQSjfb0Xpvu112PfWcMgJ079kvCdSksbYuoClkZks5UICPHXsX8fE/lwlk/DI5C94k2++6pi6fZl1iW/NGps2slD9jZjOa00qdiH0fGpE+jEp2fvsZZWJlDXCXqLlmUbsVAxLgu4EsAWR8v/jqSzKltWlGJTKXXQY0qtEQZPChRYNA43y1AUGG9JXm8TDzZ8iUynfDABhE9v7gb8Bv9pB0QZthXRpr6wKahfm5UmF2RsY/+kBO//I/yDi4jBahgjELuJbm8mlqkd6tt10r0EQQophk6WaYzLY98nXpgUrMYA12KNecBKqWAAcv+LC085W33wBDwDGZD5R2JrB4/hmXuFm1bNexQdj5M8yVicHlMXj3vbL/x3+PRM37Jd7dI7EEEr79ti6gKS4slBbz8zIBSgkCzRgAh8DDebU0y6dJM58GJrROXIBr4UmgEmhWM53FQPOdOnyfVtQcQVhzGoXPXHMSqFUCGRQ+G2WYM4Ami/LOiygzYj6aStOZ02hqlfbq24ddUZOAQmAZAsAQaEi+y3kEIGvrAhqowiWqw5MwmZ39zc/kOkxoYZR25qiZqjJ9NINASObTuBaeBFYEGow0lXomQKYZ37Fbeh/+uiZqDsLuSsZm15wEapUAw5zH4c9l4ub0O29I4dL5MtAEgwGYR+OAplZpr7592BU1rXTzMExme5//qZZuVjN7wAKyPqDxM3sYBHARwQCMPptBcMD81OTqV7eGJTTMEGxYAG1AC6GBIQC/ncFmDcJbwyo3Axr6aBYg6UUEAiQR/97/+HfUR9ODkEUX1rwG4bpVbikBhjnPIBWCPprJ11+B+ewrDQjoQHBt2XSG590BzS1Fua4V+Pzz1Z1FoibDmlnwLIz8mSSc/j1w/rOi5k4EAzAooLLVBDSZi+fl2l/f0MTNMSRj5aAa19oIKp0Amj4/+oyqtUvcqlWq3varAQ3pJ2hGK8YTEgG/WRfIMwe/+Yx0Y5pQW2sinBNwe9nUElgE3UkeJvZZkGyOv/aS5DAtgfcsWsh74AKHMp93BzT16SaMOGWwD6PNphBtNhdS/kwXTOtDSOpmouaWr31d0jt333ABNQHN3PVrCFn8WBM3r7z5msyeP3vDAdYzg2UDuhNx1Wy68J0dz7XaJbAS0DCeXj8AGgGoxLfvkvRd98jAI09ICqMUF21Wu9zdHjwJWPRZBprM+Bt/lAzeHYtM9s7OlsGFJjMHNPXpMRxM5hCwRU1mNl+QfI3BW3aW3bv3yrbHvqmJmgN4d3QOb7FF5WlNQJMH5Te1GprOzv/+N0I6mjBah/IfxdRX04OwWlJUuFa7BCqBhmHOxBd2QCZwRsFt1nXkAUkjeqQXoYrsMC7arHa5uz34EkB/U9MNyjuPH3tfZk98JIWTn0pk4rpynRFgOKakn9b5aMLvNRZtRo1mHiBDS0YYrQ+FznY/+7yazqjNJFBapLLVBDRkbSZ789ix9xB99h9R4Oi4hjhz5FJLs+gzx+ZcvRQJJqs1S9YkwHgfJHBiZZJoFuCfie3eJ72PPilp5M+ktu/QSJLV9uXmOwmsVwJI+Jbp06cANB9L7sO3pXT5AlgCQOIKkOGQEiQBCjaWR3Mz07mzdaztLvC9EDZbMx3+jCwjC8D+H/8nyJ95UNmbyeJc2WoCGubNMBFrHKGKp1A2YOyj92Uhm9F5lQeq5rdFnzk252qkBkcfVieYrAY2QaAhwCDQTOvOLKJgUQHlGZL7D0r/E09Lmr4ZMLFGMc81J4GwJeANUCclAx/N1BuvSv7MlxKH/4aVN70SAQY4XhTqakBDkOEyBzY3v0P2XgibrZlmdUacDaHA2QGUBRhESoSa2gNhzXZmNQFNeScIcz6D0s6kpJkbG1WwsWXrmbLjEGwINBoUgDBnjm5W63DrOUa7bbMSeFRGjFiHKq+LL+XvuGAU1vU1Gc9kpkBD7QaRZovJTklAo+m5/xHp3LV3Rd8M90VNKLjPdpOjO9/GSYDPMZ/bSiAwX83chbMy88Hbkj9/RmLgQyMljafFEECWtBqMm8snrd/8n5xUAg3nqbm3vIX3xd+kYu7m+GkDTEabMQhASTRDeI4JMp1gEBlBtNk+lG7uh7l9tRYK0MxADb746u8RffauqsTzKGxUa2PHSAaAZjOzufLFvpKmQqBRP0tA2EEQwOJloGAdLmg60+2h0QgTrBCmGENFzWg3bKxUiwMPOA+xACJE1qvR6puBY7qvTgIrSYDaCevNsKBZsOlQBf2oODuFYICLUmJaBJK9o9RoAEw3M515QLK0tyCAeGY39FrsI9j4qxKQgss3+nc+48yVM6CZDynaLInCiL37DyDa7CFQVT0rPfi+WgsFaDKXLsjoe297Yc5w8oVRNoAn7KLPPKAgoBAkaO4KAokBR9AjRnCxxq/68efxATeQYQAANRpqOUW+CADqpXhSiskuKfnkmdyXd0xvBwQYLYyGqf7z92vHc1MnAUqA73kOUujcJ9AQcHQ+5hEMDAciINuMzuckUgCjCF5+UQxkOLwh0HBbD3S4J3973S/3vdRsX5xjQBO0fHBdzlegwcrBbbnNZmj1ijbTsgBHH9Cw5pEHH1lWFqBSrqEAzdz4dZn68nMNc77855dl5uzpyuOs6/dmjz7je1w1Gbzx9Tt+Eyjs/a4AhHkGLpwfXI6f5WX8bsDkgY0PMnj0CCb6IeBAuyn5I1Cux0TORf+IHuB5x7DiaNyva04CQQnwpW5RY8QY0zBYoJ2JmQQQtgiARaDFeADjAwL6moGNAc0y4AggBb9yHZvF3XpA5s2x5TqPx8MKCjg8+CZq9Yo269m7X7Y/8ZSGNbOaZufg8KpSDQVoyHNGLeb6h+8hzPlXMsVELAQK8MVUS9MOixHRZoo+C0rMgMHm2W/VMjCT8/Xjgw/FTVCg3DmfzW6BrevtwwMLYAhAhQDEj681BbYtA42/E92Hrkczmre+dxT310lgSQIGNAYy3mvfA4VlQINNuO7Sh+DDeeafWQ4kPALBRKf6HaAFmOE8ziaQ6FS/e6BDIOL+2fg3+NvmcbpRG5/Z0KPNKGc4/PsQNLT72R9Bo3lQi56R72y1FgrQkLm5MDOt1TbP/PpnMqFszjkB+eZqx13TfHYcdozNEn3GTsEXPqdsQWDhb9NgCAymuRADON8DGHz31yOPNpex6Tw8ZfoTf8r7DS7nPvBRDcbfkIsrz8cDGO576Tz1IO6Pk4AvAX3Z47klYFCzCb7o+Z3L2fhsG/AYSHC+AY0CEH7b+lzGhs0AMAFg0d8EHH6CgOKBDeezUbMJAg3nBs+H62ykZs9v6NFmMLPHYGIfQL7dvh/+VKtqxhGlSgbn1VooQEPtRdmcT3wi5174mbI5MyBgYS632nHXNJ8dgZ3Eos9IshnsuGvaSZusxE6hQIIXuGos+F0GBF3mA0ZwPl/22FDNXtwO3/n6Vw3F3waT5UDjb0+7LfcfbJVAY8uWzs1pMiYTN721BPgS957XJVAIbhUEmuB83Q5ow+XUcDyYWFqDuEHQICARtjgtg5L/3QAFP3V72yY439uHD1BLu98w3/h8c2BIoAk12qyzSxgIQLbmPT/4KfJoDt/A1lwpxFCAhm87hixOgxngAmqCjyH6bAahi/npqcrjVf2bHYXRZz3I6UjFYxuy8iZf5Ko5UI78jg9f+pzngchyDYbzbTkd+tzGAMY0DszS+Zxa43ps3JZ2W06Djb/0PIIz/Xm2X6fJVAjH/VxVAvqSxxueQLDSAJHLV9IoCAZkA+E2KzWbu7RfD3A4n4EE3GcZUPDbm+8Dkn9MXY7vXMbB7ErngUVt3fQ5Z7RZYVFmkKcUVrRZorcPNar2yhCizXY99T3pBTNAJVtzpeDCARp/r5mL5+Ta23/RoADWB8+h3kQYbSNX3lSQIKDwA2HZy56dxIsK817+/K0ggBXKQASnPXNgBGSYTK4s4fsCHpqiPj7+KA8+LnYC7tca90vKGXPy2/zVptSQVANatpfV1nbznQSWS4DOfaOXWb5k5V9e0ACi1YgCfuNXzb9Bv+VzwMZe3YHvEeTfFPEiFZBzMheHwQVlIMGGQeDxzGdLJjTud6NqNqFX0lSpC6pnbpUhFEUcvv8h2fLIN0CiucdfsvokVKCZG0P02ckTXvTZ669q6YDVD732JRu18iYfFw88VtZkCAgMKfZAxwOaMvhg2xJyX0opVLJDRczE0LBE4IwrxuJSBLCwdUAT7AQLdhRThjAX/RGimui4vfe86rq3+sMwaIczt5KSW76iBPiy9wc/Ky6vmMluyh5c9q2goxI86POdQ8Lhgu/7jQJ0oosFKSEYKY93zyLosCLZGYkwJwfb8xPUcAg+QeaBMgDxWP7xNpJmY9FmGZ/bbBHyCqOxJMD2x7/tRZsdPISkzdWjzex4oQJNITOrWgy5z869+CuZ/OLTELnPvDo1WnkTL052jHZvfM+XNRV8J+hUajJevos/n2ABraWELP5oultivf3SMTgicWTnEmiiABrmwJSYgInWAZ9WEg66GOS1iIcMYz+d7/44CbSTBNhzY3w2ADDzCDxagM+BLYLQaObiFH2gKZCVZHxUFqcnpYh3UQRsA1GyDfgaDoHG06xgKsP2BCHVfDCfT4YBz0Z4SvhuYRmASQAz2ZpX8slilaqacZv133G37HnuR8ptRu0mjnfRrVqoQMMRxyJu7jhq05z+xf+nUWihcJ/hKryggJgMoiAagwM2wsjDgCaosXhmsSXQWQIazIOJrJhGdAdZlvfdJulde6R7xy445gY8XjImWuKh0Y8vsyjCECk7HgsL9K/74yTQXhLwhkiqiQfTJqiS80OwoQ8CZJ2zSB7PXDgnuTNfoVT0FYlmprXejYGKJYJ6oOJpPQYwqvH4oNNe8ll+tnzWOWgl1cw4CpwxGCAM32qZ2+wISjb/5B9kEDVoYhz04n18qxYq0NjBJr844ZV4BvcZ/TTUdMJoScZusyAaLiwBZyE7Rjs3dggDGTrb+Z3PjZrM9LdXkIykl0WASKRvUOI79khyzz5J7b9dCwx1b9kqiXS6ncXgzt1JIBQJ5DMZmb12VUuXZE9/KfPnzqBc9DlQ3IxLFGBE0k4PaLx3B8GHrxDVdPBlowAN3yN5BPtQk2G0GUsChNGouVCDYSVNLdl8x6E177YuQDOLG3wFPhpyn00AdEi0GUYjU0AnzEFpAE03mEMJNu3cbgU0rBfBvJYiRg0Ema59B6QPkR5pTOPgJeON74BpbC0jinaWkzt3J4G1SIAWlQXm9GFgWwB/WubMKZnCOyiHqYINrC3M2+F7xAOVjQk0BJlZsOpnIA8ma4ZVd4YEmgMAF3KbbYOPphsD3rW2ugANSzpPIOrs+gfvytV33tQRBlW3Wr3JVHHZSTYKU4D5ZEybKTv6ISuazLw6MXgYELOe3HdQulG9bpBZuDCXucqXa+3ibr3NJgFjh87CjDYOtpJZVPKcP3NSSsjtg3EZYdP4AHD4Pgn6ahhOTQDi/HZtfMuGzQRAkzvN7yxqtvXhxzQIYABRZyzhvNZWF6Bh/kzmwlm5jqAA5tVMn8JNVttqbVEPvFh2hI3CFEAVl6yqmqOCO6ZAg3mcr74ZXCvDlxOI8uh/5JvSA6DRgmTIwqUsVO9f65126zkJbBYJ4PnhwJZsJVlU85wB0Ey+/Zrkz532ShFg2Uq+GgJNO7PEE2Q838yiBgHQR+OZ47lk/S2CICRSzvQeOKh5M8MocJZGHg3zadba6gI0Vnlz/OMP5dxvf6mVNxdypKQprPW8VlyP4wy+YGk+60PeSFe8Q+L43Y4jEN56taX6QIO+r0DDeYuIktEokQQq1eFmphDlMfzNp6X7wJ0ST6VUm1lRQG6mk4CTQFkCLMpYyGZl9hQIf1/7g2QRBSsYBEfzcz7QLDehEWgSvlmtHXUagkwBnxzCmacQHEHNJpQgAPiHO7pAOYNKmnu+/2MEAdy3aiXNsvArvtQFaKzy5uTnoKT57S/kOipvMsdmIZetOHz1P9kBWD4gnYirCa0L31fLIK5+743ZwkYeBBV2DG/UsQQ05psR5Md07LtdunGDlYYbqitHFpqF25hTdUdxEmhbCdCExndR5uJ5LWMyi1LzC6jmKci3Wc1Xw4Grmc/aDWxoGcnherMAmky+gICAtaZk3/wWd3SlNFdmGJU093z/JyhwdnjVSpqr7akuQGMHm4ET7tKr/6xBAVOMApmovSAa963lA6DNMPqsx49Aa6dOYdoMAcb8M8y+19/qm/HILaNbd0jq6MPSe/heGbjzkHTBGeeak4CTQHUSyCEYaeLzEzL9yUeSPfaOFK9eUqAhqJgJDV8VYMxPQ7Bpt3cKgwBmYC5jtNk8wCasIIDkwKD0IcqVQQA7vv1d6UEwUrWtrkCTQ+mAseMfICjgHbn27lvCAmlhNAsKULJNaDY0pXFeu3SMSqDxHP9LvhmCTwErJfbcJgOo99ALx1t6+w5J3ISGOwy5un04CWxECeSR0JmBr2YaAUoTqJeVP/cVTO5gbkJAAE1lBJd2Bhq+T2g2o6lsCpoMfTMEGc4Lo6URfLTloUc1rHkIOTRdW7dXvdu6Ak0eIYaz588KmQIuvIKggK8sKKA2ARBQ6KtpV1ZnXj21F9NoCDQ0oWkAAKf4EGg6QVY38szz0nf3UUkOwIwG1lTXnAScBKqTAFnk5ycmZOrTYzL60m9kDuS/CjR4hyjQaARa+2o0BBQ1mxFokDdDoAnDN8N3rAYB3IYggO98T5kAuncjCACpFdW2ugINgwIINtRqzsJXM/HpcTAH1F6nhhdJsGlXVue1Ak0XqtZtefbHqtEkERRws3oP1d54t76TwGaRAOtlzSMIgBrNtd//UnKoBkygoSZD05lOA99pNmsn0xkHrPPQYMJmaWZ+nld35ojshW+G2gxBJtaJIKUqW12BxurUTMI+ev73v0admvcld/2akJYmjBZHwmYKiZv01aRhPmNoYju0tQPNXbL1uZ9ILzSaRA/IM29SWKgdrtudo5NAMyRAoMnPzMg0NJqrL/4CQPNZGWgIKAQb89e0o4+GKRIZaDP0zWQZaQdfTRitI5WWruEtqDvzACpp/hBBAIduWXdmtePWFWjIp8LID5rPrr39uubVTJz4WMFmtROqZj79Mgo2ABol20REVjs0BzTtcJfcOW4UCWx0oJlDdJmRZxJkwvLNEGQGDt0jzJvZ8sjjQrPZrerOrNZn6gs0/lFJQTMFKhpS0lx58zWUDzijAEQgqqUFfTUDINtMtUlQwGpAYyUByj4a2EaHn4aPBsEAjPxgLLtrTgJOAtVJgDl8jHidIlvJH+Cjga84aDpTraYNTWd8jxBUstBmJpQ8MxzfDCMjCCg9e/bJtse+qdFmfaCeIQXNeltDgIamMpJrjn30gZz/599o+QCOMmhaq7WZr6bXyDahBrPjtHJbFWioAWIhba7kOIvv3icDj3/HizpD5AfrcrvmJOAkUJ0EyBDAiFeNOnv9FSmcP+Pl0fjgwvcFXhttF95s7wmazKZJnskggOpEs+LaDACgmZ7lAHZ/93kt2UwyTZrS1tsaAjTM0GWy5iSoIFinhowBpPRmNEgYLeiroVZDX00rQ81KQEMthqMTAg2/E2hiyKNJ3/816YFG03/wrjUVGApDnm4fTgIbSQJMFp88+ZnMQKPJfPBXWbQ8GrwnCDLtyOLMdwh9M9RmQvfNILqVpUfIAMC6M/2gvmLSJvkV19saAjSWoTuDpM1Lf/qD+mpmzn6lYLPeEw9uZ74ahjv3Mq8GiNzKeTWVQMORCXBlKeQZPwg0pf4hiYN2hkCz9cFHJL1jZ/Cy3XcnASeBNUggc+miXH3vbQWaAuhoIpNjXsJmmwIN3x8clNI3M+3nzYTpmyHI9Oy9TX0zO558WnqQrFkrI0lDgMb6QvbKJRmDn2YUHyZxkvAuDFZnai/txIFmHYUAs/Qh0HhgYxQ0iylUrkORszQoH7Z+HaSayMh1ZQGsN7mpk8DNJWBlA8hQcvWN1yQDSixBMbRYdtYznQFoPGYAK/vsmd09U1rrJoATZOrBacakEb5HSdzLmjMjYAIYwie1bcfNBb2GpQ0FGs9Weh5BAe/J+T/8Vqa//CIUVmdeJ8GmnTjQKsHGS9g0rcYj1VwAmd0i1di9qEPz6DelFzZTV+hsDb3areIkAAlYIbRpkGlOvfWazJ89JTGY6ztA7qv5MwQa+ml8/4xnRvNIelvZ9K7JmdBmwuY0K7M0336H7H76+wgCAEvzjt2h+IYbCjQst1rIzMg4OIfOvfhLTI+ByntGFvPzoTwYyoEG8xnr1XRjmkSeTSt3GIINNZoyMwC+c7Ri8xawfAFXEN2yXVL33I8yAYelH0mcDDt09WhC6TJuJxtQAlaPhjl7k0jOnPnsE8l+/IEUr12WDrjLWXjY02T8ZE0/adOAptXfGfMsbKY5M+A0wzQsTrNYIglQ6ZFBmOr3PAeWZnAsxtM9Xpn4GvtJQ4FGfTWMkEB44aU/vQRfzfsIdT6t7AE1XoduTrWPnaVd6tUY0DCs2VicmWpFsDH+szxXQrRHHCa0FEBm4MFHtcJmAhFoLoEzjF7j9rHRJODlzSDSDCaziffekizApgCTmSD6NQEUMUYAz0TWPtFmZgXJIQCAeTNh1Zux+8+s/x7Uvho++oDsePIZ6UV6RQQD9jDY4hsKNHZB5qthXg39NdnLFz1fDV6wYbQkggH6LNwZWg07VCu2MtAQWHxNhiIg2CjQIKqEAFRE8bMIyjknEOLcc+QBSaEDJAE8Hh1EF7J1EzU761pRPu6cnATWIgELNlqExWQRpjHSXs0DWLIY0M4cf1/yCG0uoYxzdHHBZwBY7pth4JBpM5y25tvCs36QoZlRZuQ0mw8hPUTly2vGJ7V9p/plyNIclm/G7l9TgKbsq4FGc+HlF2WKvhrYTdlhwmg0oZHROQ007kZIXgJg04qtEmioyXAeI9AUePBFTWnoBAusckfNZmhY4tt2SQJRIV0790h6205N5nQF0VrxDrtzaoQErMAZkzIzVy5K7uI5ySOqtXDlghQQ2lyCJtOBYoIxPF8KKr6pzHwzFqFqgNOqQEOQmUWqSAZAQ6bmsExm1Fgi8Af3wTez66nnVKMJyzdj978pQFP21YBk89zvkFcDn00BpHeLGHWE0dhhaIMtsztDwyFit1oH8kAlGHm2BDQWjaZg5JvWigAbAXhGURAttmOPJLfvQvkAAM3QkMRgS41B64niWnGxfuIWt3bNk7NojlI7SgO3UxMKW63/Nk+W/rNMbR+jer43FuH7nR8bQzmAizJ/+YIsXjonRRQ4E7yUowAZLWiGdwJlaNqLBgRAuByGcj7fEQY6zbu2G4/M/svoXBY1M3ZmWjw4CA2j8b0RB2kvfTJ7vvcjGbz7SGi+GTu/pgBN2Vdzmr4a5tXAV3OWvhp0jBCadRpqNcYYwI7GTtRqzXsJLgcb6nXsQ6gPqCY0ajjsVEU8DkVcQqkjISVEo0WQRBVjti4+pa60RDtTkgCzKu2qBCoPtlrtiht/PgwbZ14SfWHt2GJ4QbIiJBMLXSMoeKauEkAkD4b44lxWIjkQ9UJzWcSnhOTwCExokYU8QIahy54mAxHqAJQhQnwVEHCURBNCVYDB71YUMZ99mtCNASCsEs3WlxIYuPbsNd/M09K7PzzfjB2jKUBjB8+yMBpq1aiv5n3m1cCWCoGGNfQkY0Ca7M6IQmPJ51ZlDODrzzQYTtmxOI/vRZrQ7P3I+UvrEYggKqi9RYZBJwAwHJngQ63H9mOy3gxTT2Y3witloUDDFdgwJYi3ctN4Sf+tR4DxgMabwb+tOPJulDx57QQJaisFaDP0v8Ty8MHA/B6B+Z0aCmVmmosNMBVosB2nlKEt57RV5cleSgaAconmENmZibaeb2aXjDzwsHKaDYFAM7WOwma3uvdNBZoCKt8Z2Jz/5xeUJiJMXw07j7E797QwYwA7kwEDvxugEEgIMgY0fIVSZTaw8Txa1HIisgjAKUVhIgSgUvPhOl4y7K26wMZZvgQolOJSM5naXMpTTQ8tCjYEGZp1+EJk4yT4IuSLMQg8utIm+sOXo4ID7h/5EiPFRYkRYNDnOYrwgMZbh3I0PYXy1A/WaheQ4buADAAzYACgRhMmA4D5Zkhvtfu7P9DCZgSZeB0q+TYVaJY40D5RX80YOdDg0GPkSBiNDyg7JU1ofYjM6oJm04omtPKLkOCAcyaAGPCo1sKZaDo/ADT+bB+YuJzbA3iwH297b7uN/pdyIKhWAo3K0pdpUAaUj2mK3M7kGFynGd+tv/JlSJOOjcTtXLic87isEmjYz7l8MzTKZ0kLIbAQVDzZ8PophzKQYGUCDxtEpN8pw/LyFpYb+ylNZrkCoswQURe2ySzGZHCwwg+R0wy+mX7k6dXKaeZJ+sa/TQUaC0tcVq8GNBFz10dvPNN1zmGnawfGAHtZsnMpuOC8y4DhXzsW6bLyfP8NWf7tr8cRO1+6XH8jN15eCTeY16tyo+x43f5FVwKPyUK303XNNGlb2BrNmRqI8EW6EnDw5UiAMRBi32bjutxWt8Ol2Hxv6cb7i0v1gca7NtNgKAM2ysGAiMv82WVNh+txTU65nrcVt2ytxsFQ2WQGjSYPzSbMnto5PCIDoLdaVm+GgVOwjoTdmgo0djFkV506eUL9NVfe/LMmcVIlDjPcmWWfW50xgJ0o+KKsBBCOvglCZSChALERNRnvRcsZOmtTaDQqL1xvWU7+U8jJWjQcbtcKmg1fdB5YLNdk7GVoL8Ig0HgvT2/JDS9W7G8jN7tekwt/K9ASMrz/ZSDygMZbsxKQONdAp9XkxT5cLwYANZkBUJicue2xJ9Rk1neQ9WaG6yaGlgAalhCYHx9D+YBjcv6lF2QC5QRYw4amtTAaH2I+pO3AGOC/K/Wy7QVq8+x30JzGFTmGJ/gsredrNOU5fPGGIcnW2gcviVqLkZGqDPD2WKuGw+0VvPHFA5zmCIkvO09L8QDHey16o/KgicxejObo1oABXANBh/3b5tv2rXW3ajsbXqM16iC8XgIMGyf8HtRNuP5KwOJt52/ob8t9tFJjL+SzXi8GANJXsbbMAOj/dz/zA5QDQGHFwSE1m9VLDi0BNNReyHc2BaqIiy//TgukMR6+MDsd6nWTMYBlBKjZJKAexvBZ6nKhHiqUnVmHs9dfEGiCByCI2Dqcv+J6FesEt2/X7x7ALgENAcfT+HwfFYIjBPxNkXhSueGKuN9e9Bm2xJvIZEawMc2mGbLgS5JAwwERG/9GcE58KRJoonB0c9BVKoATEM9JFM8LndwEFr5cub0BjTdC9/ajO9sAf/RqApdUCSC8RC72xVe+4sr1uE6rajB20uyTi7jfeXxImskyAKExAPgHiXf3av7d0L33y86nvodEzTvBLoLnBO/HerWWABoOt2kmIxVNOdyZ1DQoKxBm0wcXwuxCcACj0Ag87dDxTAYGIPaCtPl8Ywbn0ZTGkT5H9sFW8TO4qE2/e9doGo2n3SwBTwl5RTK4RWIDQ0rXE0WOkWo7uNpFJL8yJ8kaxLVMhja/EdPKlyRzP2JIMuSLkiBSRK4IaVUWJ8ZExq8hRyQLYPLAhf3XAxkPeLi+99ptxJk35hh6SYFDGbAGh4krXTbnUTaUkbWlbzandaZ8PvmME1gYZUaNhn4Z9uswG2n/WQJAqWYYzoykb/XLBOQU5vG4r9YAGv+q8mAHyFw4C43mfU3knDp1UjWdMEo+8xDsZBw1tnoUmi+OGybWEW/V7cw/wdH9Rm6UA59BPojUSCz02wNkLOvtF9m5XxK7QNWzY7cker1S2NzOA5rWfO0wTJdAY2eXn2Yp4vOSv3BO5OJpiUxPqjZjIGMZ7nyp8l1h223Ue2+aimmAq10n5dDqA8ngubPf1jPKTEs0Q3PpO3AQpJlPo0TzA5LetRfPRV/wNOryvaWAZinc+WM5//vfqM9mDqM4+nDCaux87RCFttr13gpkuB2BZi3rrXaMdpmvgIFrJdAUoKoQbPidDyz+S2lgWCIH4OSEo3PwrkPSNTSil8btaDpr5UbTmZ1hbmxUxj87IXMImCmdOiGRiesKKGWgwbXEMcw3zca2a+Xrq/XceI23Ahoeo51kwf5bzygzhi53QrunT2b3s8+HUqJ5rfexpYDGTnoWpQMu//lVZQyYQulVRqXx5alvD1uphqnVraEJrRv+miR9NRwN1rBPt2njJWBAQ02GI8FKoIkMjkj09kOSuvtesNHCRBBCpcDGXyWYVbQy7XuS/fQjKX55Auaz0TLQEGzo32F+mOe3cf24GfeolmPqwAf9dx7ug1n4ZWgyC7PODDuLWnIQVdaH0vA0mW1/4tvSjaizRrWWBBombU6DB20MHGiXX39Vps98FSq7M4XO0V+SXGjw1TAarRUTORvVCdr1OAY0Vs9HzWd4YE2jifYPShzVSQk0Aw8/Jp0wn7Vjm4PZbOKdNxVoCqgSWZoaL/sezIzE/ktONDWfteNFbuJzLpvMkPmvzn8ADTVzHVyHIBdjAOjdd5tsf/zbCGd+QPnMmKzZqNaSQLMI5+c8CDYnThyXC394EdOPPWdoSOzOJtx24UKz83XT5RIoA42vzZhm4z2ksM+DSqMDWkz60L3S/41vSdee23Rkp+rA8l215i//ZZM795VM/uWPkjnxkSwwQAbUTWXtBWo4wYVazWYynbXmDav+rNiH68Zl5p8O2ZlZu2rg0D2y6+nnMD0iSTLAIzimUa0lgYbOf/prZlAh7/JfXtXggOnTp5SeJkzB0OzQDlxoYV7zRtrXqkADU5qCTRIhmwgISN91RIa/8z1Jw2zQTiWwGYnJ5yAD8/H1V34nmc+OSwmBAFGEODM83wuJdkDTrn2a/ZfaTL24zEwu1Fx69x9Q5//2b3xbevYd8J6DOoYz27Ft2pJAYyeXu3YFtWqOqQlt9P2/SubieSmGWCCNPhm1XULgDHemCY1F0jgydK31JbAa0Fj02SLyaEoYzaXuuFtGnnleepTLqUuiYLtuh8a+vpDLac370Zd+I9kvPpUItPoOkEgm0U8d0LTDXVz9HDkYYjEzlmRmODMBJ8xAHprM2NfTO3eDnflrajIbPHxUurZsW/2k6rSkpYGG7ADkPRuHE/TSK7+XCTxohZkZDXkOSx6EFKvImQLQtHJFzrCueaPs51ZAs4ALJdh0QpMZefoH0gtfTbKvTwvEtYMMWNBrfmpKptH/R//wgsxBs4kBZAiTDmja4Q7e/BytYiZZma1iJvt0WI1JmPGeHhnAQGvHd55FQbN7hfxmZAVodGtpoDHGgOnTX8qVP7+ijAEz589IfnLSd5SFc1s0cgeO1E4ATS9ZnhEk4Jyqje6K1R/vlkCDEWMBKyUQXTPw+FPSiwqC3UhOS/R4+TTVH7GxW+RnpmUWSczTqEA78frLkkc0ZhwjIzr+HdA09l6EeTTrt4wum1ZW5gW/wGE47zMGddNSk+jvl57d+2Ayu1+2PfEdmM9urzsDwGpyammgYTgz7dRzyCOYOvmZ+mpIukm2Z4JQCUltYTQzoZXzawA4nb5pIoz9u33URwL2wNIEoRFnFubs+2g4j0AT27Jduu65H0BzVIbgEE2NbKnPCYW81+zoNRlDIMw0zMe5jz+QxWuXHdCELONm7I79cg4mM2oyGWNl5rsupJOJgPWCyZndu/d6pJlIzOxDzZlO5JHVmwFgtUtobaDxz1pJN5FLM/7pcbkIp+jE5zShTaFWOLifQmzB/Jq0n19Dbcd5bEIUcoi7Wglo+BAr8ABsDGjIEBDdtU96EW2z7Wtfxyhvrz6I+tCFeD5h7YqDKw6kZjCguvLXN2Qa0ZfFC2eUEUA1GmjfLhggLGk3bj/sr3T+M18mU498Gf9SYgiCiff0oQTA3bITQTCDdyPKDDk0TNhsVmsLoDET2gwiz6688Uc1oWkU2uR4qHIL5tfQV6PBAX5uQqgHcjsLRQKVQEOAAb4sAxqSaBZAqrlIIkHYqnd+6xkd3cVTKY28CeVEQt4JI80K2axq8Rf/+JJk4JuMgWA2DlJNkmwuS87EKMiFN4d8A+q0O3X+oz/S+T+Lezwfcr6MnXYS+WNelBlMZl//lvQg4qzepJl27NWmbQE0dvLlKDRwoV1//x2ZZRQablgJDtIwm4Y8+0DTBRWUDzdByGk2YUq59n3ZCJEPsH1oTCXJJiPPFjByVKDBvcvH4tKJPJoR5NP0QbNJb98uiTqUrK39qkDQjDyZzOXLMgVNZhT5M3PIo0ksFiSO62RfpOZt7M2WsGk5NE4DD+MOhLsP9lNGk7EvkmKGQJPlYALmszBbBIEvDN/vRpTZ8AMPazhzs6LMKq+rrYDGotCYyHnpT3+QSZjQ5slqG3Iip+XXdMY6hCY0knA65oDKrtMav1cCmwUCDR5sAo0CDk51AcOE6NAWSd5xWKPPRpAdnd62vTUuouIsMlcuyyhYMRhtNv/FJ1IcuyYdsOB3YD0l0PRzaIzB2YFMhQBb7Kdl/jOyjCazucUFBRnOD7MxMTOJxMx+mMxImsnEzGZFmVVeV1sBTdmEBkqaK2/+ScaPfwiqGiZyjnlRaCHduGBwQBeAhlFo1GzieMCdVlPZhZr/m4+raTQewHj+Gc4r59RgpSLDOoe3qQltyyPf0MS1eDrdMiY0NZllMpqofO3tv6jJTK5fkSjC/K2omTECMIdGQQdTAxrXN5vfFyvPDalHAAAAJ4RJREFUgH3TMv8ZZZYD0GhJZvTN0GAGfYAWl+TAkJrMBo/chyCAJ9G/b2u6yczk0VZAU45CA7DMIOR57PgHYA74Ex7McLnQKBw+tFEAC8HF6td0AmycacK6TutMK4GGAAMrRdlXYyC0CA11MdEp8Z17pPe+h6UX9dJ79+6XJMJAW6HNI2x/+uxpmf78E5n+8B0pXDwnsfycxDACNjAxoIEFzflmWuGm3eQc2C+ptVjmP4GGoFPEJzSQwTGMy4zAsv0bT8rQkfvhl7ldmZqbFWVWKZb2Ahr/7I0LbRIP5MVXX1JONJaCDrOcAA9FsNGRAgDGYw6gv6b1K3P6Yto0kyDQeCADoMHVa0E0II4BjUWhRTDy69x/h3QDaAaPHJXUjl2axBlFWHszWhE2e5p/s5cuQEs/JrPo13Onv5ASBlSMMgvymHnEmRgE4UQ56DEA4pT91bXWkID2SfURMvPfK2TGgmZhZv7blTKajKWYaSrb+e1nYDo73HAuMzuX1aZtCTQ0odHMMIsRH4MCWCiNVDW50aurXee65/PhZcnnoGbTDpU5133BbbihAQ1Hj/zOqQcu+O7/Vl8N5tMhW0RSbhThn11gdu5/4BHpOXindG3dLvF0d1OuvpCZldzVyzJz8nOZfP9tyYGhuYjw/SiS+dT5DxChJkNg8Zz/njZj2rUBjgOapty+Gw5qfTBYKZOaDEs0c1nYrWtkq9Dpz0JmDALohsaunH4YILdKa0ugMeHNT06o2Wz84w/hs3lNzWnkhiJHVJiNDzA1G5rOjBONwMPRpXu4w5T0+vZlD7aNFj1thuYzAo6v2eC7RaExRrHIwcPwVknddY90336XdN8GUwMe2A6EPWsoKO43bvr6TuhWW+FceK6LIMdcQBjzHAZIGRDIZpCUPAvizAJ+R/FS4mvCosw8zYUAs6TJEHR4huybBjq3OrRbXl8JsC9q2Qrcv3pxmNkVkMeso6tLzWTbHvsmCprdp36ZZP+ArdIy07YGmmIhLwU4T6e//ByF0l7RipyZyxeE1B1hNz7QxonG/BryopGA0z3gYUt6ffvjA86XN8GFQGPgowXRMMPTcPwoNCzUdcAFJcivSezYrWa0bpS4ZTInqxDWk+XZWJlZPZZJmRn4G3NffiZ51J1ZRBSlzOVUc2FUmeeTwaAGYNIBZLHoR/ZHM58RaPjbteZKwPocOcyY9U+gqQeHmV0lqZTS23dpxcztpJi5/U5o5QxuSdgqLTNta6AxKWbBB3X9A5jQjr0nYx8f04qEYbI823EIKnzwaTrTsGc4lx3bs0mn+VN70E2zoTZjlTfNnBaMQrMItShGgJ0wo6WR2EYnate2nRJHmGgcUWoxmtkwqODLfN0ajq/BqC8G5rACosgKAJTclYuqhWfPfiUFcPgVUYOJmkzQPLbk/EffwzkQaKjVEFicJtP8Phc8Aw5mCDIMX2YYM01n7G/se2E2OvipzbBi7BDKMg8dfVCG739YUuDxa9W2IYBGbdzXrsoEWZ6RST2J2uphszzzBtrDbWDj2J5br1vzkTbNxoCGLwBqMAY2/G2Aw5wbwQgwAv9MrA8VOUe2SXLnbkkBcFLbd0gKtTwSWFaLhmMaTB6+mCyqx2YvX5IstJh5JBwXRq8AYMalBPCJQEM3kDGAoSbDAY43fwloVJPGfPZJ11pDAkE2ZgMZG/SEeYbGytx/8JDsANPFAFiZu7ZsbZqPcS3XtiGAppxfg5waln6mz2bm3BmZB0UNH3K8edYiizWvY5oN2Z57kInLhE6ONjnfteZLgHc7CCoGNAQem28jTZ3H9fEpwZRWSqEqJ8CmE2HPXTt2SmoYSZ4EG5gpYp1dHkcaNNkYtRyMLFdq7HOLMJuUMLLVvglTGM25LFGevX5NcpcuytzZ07IAkIlkZyQCXw33ZCBj/ctARv0yWO75abxIMwWalQ7u5jVcAuxT1I5pJptBkNIc7r31r1BPhgML9DlSzPTs2ac+GZZmbgWKmVtd54YAGgIJH+45hDjPnD4J89mHcvWt12UGJgkSb/JhD7MtaTZRBZkUgCYNwGHos2utIYGVwKYMKugvCj7sNwQfnLL+Bustc21KyLURBAVE4L/pACFnAkECaUTyJAaHJZrqgkmtW5Ld3dJBH88KbQHAMT87CxPZrBSzAJnx6yjad07ycPIvoEJmCbxlgiCAiJ8jEwULuYIK9sWxCkHEQMbAx4HMCoJukVl5vHsyAJgsgKbsk2HfCvn8yMhMwsyevbfJ1kcfh9kMzv/9B6UToc2tki+z2iVvDKDxr87ya1hSgJrNJCjWs3y48dBThfVcxKuJovr5NvJ0mk31smvEFiuBjWdC84BFewT+mJbjTb1lHKEushJnZ0o6mHcDp2scD3QUOQt0uCbBk0agKakSa5psSSLYnwc0MxqoUsxlpYAB0ByCVBbg/Je5rMQQFbmUG7McWAg03JsHNKblLOXLOE2mET1nbcdomCaDHkF/XAcGNykMevpR6oKaDKn/k30D0LQxMGrxtqGAxvJrslcvIa/mOJLfPpDrCBBgsACXhVW/xu4pXwjaAaDJ0HzmNBuTTOtMVwMbjju4LLicLw7Op+ZDDWcRD3cRRIUlRvGAR0oQGACbmUQxsqQzliNMhkmXiA5oEWxDZ772Q4BJkZo0zGeCAABBQqb6YEAAG8N6noZyowajfYr7whdPm3Ego8JtwT8N02SgabOv0dk/DMf/IDL/Bw8fkdTWHS2XL7PabdpQQGMXWYA9PANwmYBGcxX5NVMIf55HRA81nno0p9nUQ6rh7TMIJuav4d41aABTo6vhegSa1TQcrsfmT6SoQHQj0ES5EzQPfqixBLP7b63BaIQbtg8CjdNkVKQt8adxmox3udRYqLn0IXx5K/JlBqDRpAE68TapFMur2JBAw9DmRSRushLnKDKtSb7JYmms1FmPpqNQvHQsz8ZpNvWQcm375KvfAKQMFAAEAx5iA+cH16vUcCyvW8GI+9NTivjmM2o0nAGtBn/58RUdfDetxNdUsMB8MNp3/HUNWAgqbPwbXE9nuj9Nl0CjNBm7UFbGZBEzkmWOgMmClTNjSNSkVt0ubUMCjQmf/GfTp77Q4IBr776J4ABE+iCMlPQ19Wg3aDZ03vnUId6rox5HdftcqwQMRCzk1IIAFB+wk1tpOLYeAYjajf2uPL4HEASVFQADs7zljFI0QKpYDzvkHG7vNJlK6TbnN++1DlRw45Uks57RZf4lMqS+A7lcPYiA3PLQY+r87z1wh/KaNUcK6z/qhgaaIpPjUERq+quTcuWtP8sE+NCYiZ1n9nUdmr0cTLNhaQGt0ukYBOog7fXtki8MBRSCBb8HdmMaj87HAl0Xy8vz/ZUNqAKbLvvq9QPO8gCEgBLUTGx5pQZjW6hGBJAh0Hh7WLZ796PBEuBtZx9gngyz/Vm8rJ7RZXZ5CSQNk6liADxm2x59QnpvOyhxBKFE6Stss7ahgcbuBQkLSbw5BhMac2wyYMklWy4ztevRTLMJMgg4brR6SHp9+7QXh48bRB4FlbVoOFyxvN1NDu8rM7oGwcIDmptrMGZr4/pOk7mJcBu4iPfauMvqnfFvl0UmChYxS4NVnPxlQzCZkTCTxK/t2jYF0NBclhu9hhrsJ4QFpSa/OCFZgA8ZBerRvBHrEl2N40arh5Rr22cQLNaq4dgRuS2waVXAIchoH7ANMOW8tWgwtgm3d625EuB9Nk3GuMvqmfFvV0sW8RRApf+OQ8ICfX1gAOga2aJmNFun3aabAmgYbkqmXGoy5EOb+OQjDQ7IXbui87m8Hi2o2ZCuhiHQrp5NPSRd2z7thcJpsBGAysECgQU3AxlbTYEmgBb8akBjvpvguk6DMWm0xpR9gbT+dPzTTEagMZAh+NSjaUImcrO6tmxT5//A4XuVx4yajTKKwxTfrm1TAI2aRtBhCpkZ1WwmEYGmYc9ffCZk0A27YJp1Bu9l40UY0XRGoGGZAVfPxiTUOtOVXh3mi+EyvlzK6+BL+fsql6AY4wONgozvb7E+UbmZv2rlbPe7CRKw+01gmcmTUsarjMlBh/WJepwWC5iRObzvjrs0jLkfkWbUZOLpnpbP/L+VPDYH0PhSMM2GYc/X30PYM5iepxCVlgP/FCPRSkimq0ezlwsBhkBDwCHwMDvcOXzrIfFw92kvnluBy2pHDQLNauu4+c2XAO8vgUQrsfqaDIGGgFNPgIkgKZgRZl3g1etDVNkgGJmHH/TDmKHhUNNp97apgKas2SASjT6ayc8+kSt/+aOf0DmpAQL1uqF82VilTgJNVxymNHQgqy9Sr+O6/YYjgfWCjB3daSwmidadUmtlWQmGL+dA81/WZAA6td7/m101Hf9JRJgxIXPbN74l/XcdVh8NI8xancPsZtcVXLa5gMa/ctNsmFdz7e3XVbOZRoVD5t3Uo46NCdw0mwQAhkDD8GdqOXGXa2MiclMngYZLgCCiIIMcGWovDF8m0OTrrsl4dWWS4NDr3XdANZktjzyueTPt7pOpvImbEmhMs8mDSTdz8QKoao7DZ/Nnmfrqi7rUsQkKXc0oMJvRdEaQMc2GJXsZAuuak4CTQGMlQN9L3k/EJMAQbArQYor11mRgFov39EjfbXfAJ/MEqGWOgCV8lyTAGL5RNBm7k5sTaPyrp1+GgQAsJ8CwZxZO0zo2qBvSCM0mjkROMj/ThFaOSPOdxnaD3NRJwEmgPhKgJuOBjBdZRpMZa8kUkJhZX5+Mr8mgzhHryrBwGcOYSf/PgAD6azZa29RAwxo2NKOpZoPQZ5YVuAoGgSkwCdSjQmew85gZjRQ1akoD4DDfphPgwyAB15wEnATqKwEtVmbZ/gAYmsqYnFlPkOEVWYXMPmT6b0XGP2n/GcKsmgwGnarN1PfSG773TQ00Ju1maTZ2fFLWJP08G/Xb4LfjSDPpuKmTQHgSMH8MAWUeA02jk5kH0Czgdz0bAYREmKzYulk0GZOnAxpIopmaDW8EQ5zpnyHgJKDROI40655u6iQQngQMZIKcZfxOgLEcmfCOduOeNqMmY1JwQGOSwPRGzeY4SDjPaK33eubZ2ClUMgkkXb6NicZNnQTWLQECTDA/Zr5Bmf52wpYno5rMbvpkjmx4n4xdu00d0JgkML1Bs0GezbW/vqHsz/NgfCYRZz1b2W8D7Uaj0ly+TT3F7fa9SSRQmR9DoGFUmWkxBKJ6NsuTIfvylq99XfNkNrpPplKeDmgqJYLfptnMnjsjo++9hWg0aDbIuZkbv15XbjQ7FQMcRqUxQKALgOPl28DGi5Ucm4BJyk2dBFaWgGkx9LoQVDQ/BgBDmv96R5XZGRl3WefgsObGUJMZefBR6d6zb8NGl9m1V04d0FRKBL9NsynMToNB4IpMge2Z4c8sCV1PbrTgqRjYBKPSLASaUWmOhDEoLffdSWBJAgQZajGMKjNSTAJMo6LK7EzK3GXI+FcWZrAxp7ZuQ02ZXqWV2YjRZXbtlVMHNJUSCfw2BoEyNxrybKZPn5I5cKPVs55N4BT0q0WlJaHhJP2AAccCXSkl99tJAINECMFYl+noZ2TZPKcNiCoz+Vs9mU5wl/XuR8Y/8mQ2GneZXetapw5obiYpjIio3bBKJ7nRqNGQjJPTetazqTwli0pjZBo1HCZ4OhboSim535tdAqbJ0EymrMt+Xgx9MeaPaYSMrJ4MucsIMJyyvsxG4i6rVo4OaNYgMdNsrJ4NEzvJ+pxFPRsWVaNPpxHNzGn013STlBP+G2o7HeRKwwk4300j7oI7RitJgODCiDL6YhaQG8NQZWb3z/pUMvVOvgzKghn9Ham0pFBPhizMTMQcOvqgJmNuNO6y4HWv5bsDmrVIyTQbv57NzOkvURr6A63YOYOSA3lEpDWqEWy8MGjm3IC6BoBDkxpNac5306i74I7TChIwDcZ8MTSRzflkmAQc+mm4TqNaAgzMPbv3akXMoXvvl579t2+YejK1ytABTRUSNM0md+0qAgQ+1SqdJOQkMSeLqhXn8zq68izFVex4natW+m4Ypebq3KxTmG6ztpGAaTFWN4ZRZM3wxcCGoFaEaDKhxclIiElizAEULOu7A0XLtmxt+8qYYXUKBzTVSNLXbBgIUJiZFgYJjB3/QOva0JQ2N3ZdudNKpfpSWdgpV/pugmzQrs6NSclNN5oEbsiLaZIvJhKJavRY59CwZypDHZmhI/dLN7SaeE+vMH9mo7Ewr7cvOaBZr+SwHevXTANgJj7/RGvaKPPz5Lj6bRhEAPWmhr2vfVPz3VjejYVBx/EgOM60tcvRrdm6EjAzGTnKChjIBcOWG5UXU5YOgnIIIPTHJPs93jJWxRy487D0wjfD+jKuLZeAA5rl8qjqVzGf9yLSrlySyZOfqWbDUgOZKxcR/jyv2k1VO6xhZQMbAgvNZ/wwOo0Jn+RPc3k3NQjXbdpUCRjIGEcZ6fyZhKnZ/Q1gW668eE3ETCYlvW2nUvyzImb/wbsktW2HRpZFE4nKTTb9bwc0IXQBmtEyly8i7PkLBAm8p5Q19ONwfj3r2qx26saZxmCBFICGJjUXnbaatNz8VpSA+WGC0WQMW876iZeMMKMJrZHN2JdpFqP/hZQyQ/c+iPDlOyS9faeayxp5Pu10LAc0IdwtgsliLqcUNfTbTCJQYOzD91BE7XTd69qsdPqm3RBwmHvjotNWkpKb16oSMA1mpWgy5sNoNBn9pQ2+AGNf7tmzX4bue1D64fCnP4YUM7GuLi0B0OBTapvDOaAJ8VYtzs3J/NSEzKJi53UAzRTMacy9mZ8YQyXPnGo3IR5uzbtaLTqNIORMamsWo1uxzhIwgCGYqGmsadFkyy+UNWQ6ACTJgSHNiemDmWwYQNONipjJvgGJdXYu38D9ukECDmhuEMn6ZzD8mcmbeZjM5kavgq7mSxn/6H01qWUuX9D569/7+resjE6zip40qSXg0yHguOYk0GwJEGDyMIl5BJhL3GSczw+TL5vREjCVpbfvUhPZ4L0PgFbmdukc2SqczyRN+mxcu7kEHNDcXD7rWmr5Ntkrl1Ee+rhMfv6pTJK2Bn4c0tkwPFofmgY/OGZSY3QaWQU8oGHggAc2pt04hoF13Xa3URUSIGRY1j5NYZ4W45FgEmiY3d/waDI7fwy8dHCG8GTSxqTgf+kHjUw/8mP6kSeT2rbd5ceYrNY4dUCzRkFVtRpHX4iKWZjLSWF6Cgmd52UCtW0UcE6ekNzoNSnBr6Mh0FXtuPaVDWwYnRZj+LP6cDzgYXQa2QWcSa12Obs9rC6BoIlM/TDM6Fcnv1cjZhHhywxjNiBafU/1WUKnfwTmsq6RLYgmO6QAM4DIsvTO3RLv7ZOOzi6XH1Ol6B3QVCmw9aw+PzkhM2e+Up/NOMKfGSQwj+ROajeNqNy52jkb6JiGk4jGVLsh2NCvozk42NhpOKtJ0M1fqwRMg2EUGUGEFDFeZj+1mCZrMP5FWCVMajFJJGHS6U/mZfpkevbBH9M/sNbLdetVSMABTYVA6vGzWEC+TSYD5oBRaDfnlP15/PiHwsJqjajcebNrMrAJajgEmYQWW3McajeTnVu2NgmYBhOMIsujCBnBxvO/NFeDsauwSpgsTDZ45D5lXU7v3COdQyOgmEnDH+PyY0xW1U4d0FQrsRrWL0elQaMhdc008m5oVpsDw8BCDizQeZjT1G/DR7PxzUCHQBMn0GDKj2o3vklNtRx857quOQmsJgEDF2ov5swnsCgnGaYFH2iaZR7zztvnKkswqiyNMGVElcE81ou8GKWSgUbjospWu8PVzXdAU528alq7HJWGyp1z8NPMAnAmPvsYNDYnRVmgYWLjOo3iSlvpYgxsLAenrOnAp0PQcUwDK0nNzQtKwEDGMvkJLh7g2LR5uTDB8zSusgRMYmRd7j1wUAbuugellvcjqmyLJFAJ00WVBSW2/u8OaNYvu3VvaVFpBJupU58rXxpZBTTnhlxpMLM1g1Gg8oKCoEPgYbCAxzTgBRFEEUzA+cAg1XCcL6dSghv/N0HFtBIoL5pMWaQzH5o5afu9TH6Psr9ZiZaVd8Ey/DtgDiNXWXqHF7pMnrK+A3cqyGz2+jGVMqv1twOaWiW4nu39qDRlgUZAwNz1UZm9cA6A87mSc85ePNcURoGVLkVNZL6pzLQcFlpTPjXkD8T5wW8XrbaS9Db2PNNcCCrm2C9AI9cPtBjSxHCZAgxFwX7fAiKxDP9u+F9IhtkLcOneBV/MMHwxCARwrMvh3yQHNOHLtOo9LuSyGoU2A0aB8Y8/VFNaBkSd88oEnUVkml/nBg9qKzQCDsGmA1FqTP70SDy9sGgLjeYU/52m0wo3LIRzYM8zzYXd0ACEU34KABVm8+cBNAuIImsGF9mql6l9EZo3nPkdqZSnxYAAk6aywXvukx5m+CPKrKMrteou3ILaJOCApjb5hbK1mdJIwpm7Tt/NGWWCnj59EprOeQAOfDdNyrtZ6QLNpEZTmWk5ZYDxtR0mgwYTQbmeakcr7dDNa2kJEGSolQQTK5lUaezJNt/ARwEJ67fGsAiDHfgWmRfD8OTuXXD27z8oZFxmdFnX8Bavdkwi6TL869gLHdDUUbjV7toAp+y7+eokaGxOKaMA+dIKs7OymG9s+YG1XIMBD8GEH2o4SUStcUoAso+BErDI5easRbBNWocAQbCgz8XAwzQXT3tB9Biixgg0BkCm7TTplFc8rNL5A0Di3d3KU8YM/979B5R12fliVhRZ3WY6oKmbaNexY44CGaHDCp7w3bCwGmvbzABsJj49rprOnBJ0Ztex8/puotqKr7UY4CwBC8AmoOkwqMBVAK3v/ahl7wSPAj6MGltJczFw4VS1FpvWctA6bEtTWCeIMKm5DNx9RHoAMqwhw8JkzhdTB4HfZJcOaG4inGYvsrwbJnlOnvhE69xkLp2HeW3U027mc144NMCpFdtqmk4Cmo5pO8AmmNQ8TUg1HVwITXLWlr7ZHDetRQIKDP4OTAuxaDHCBjDD97l4VSzbQXMxeaiJDCbbWLJLtZguOPfTO2AqQ92Y/kOkkNnj8mJMWA2eOqBpsMCrORxNaaSoYbBAYWZKsggQmKY5DXk3U/hkr13WstFcp1WbAkWFplM2pQFZ+F0TRH2fDqPXqAmx8S+/O7BRcdT8hyBT1kL878FoMcvUL/rRYmY2K2/TopqLCYY5LyyvnNqyHWHKB9XZT5DRypc94CiDhuPyYkxajZ06oGmsvGs6Wp4EnRfOqimNpaMZEj2H4AHWwKH/pkj/DYek/LRwI3BYIAGBRClvKoDG1iEQcR0FHMw00LHl9ruFL7ehp8Y7b5oKD+z9Xu7Mt+UEEAMaL1qstX0uNwiSgxD2DfPDoDZMJ5z7DFVmaWU1le3aKwkQYbrWXAk4oGmu/Ks6elm7AeDQV5O9BP/NmS81YGAKms4ciDpbKTrtZhenAMEXBVYqg45+hxaDuTbPfDvM16G2g/9YLmWGaafxLEmZoELw4Ee1EfzmmEPBpCJKjGBT9E1lNLyq1oJ53Ac30im/t3CzaLJOhCb3QXOho79n3+2S2rFTfTPKtOxrMS18GZvi1BzQtOFttug0BgvMnj9T1nA8ZgFqN6h5gxIFrZZ/s1ZRLwMfIItpPAQdLqMvx8xvnOo/zON0Nc2n8tjcTyu3lV70ponwvLmcIKIA4QMG4SEYHUbfC9cj/Utbaiy80GDTgQbuMfJhYqDqV5ZlhCwzs980mO7d+9TZ7zL7g4Jr/ncHNM2/B9WfAUecjE6DqWwhm5X81KSa0GZhVptCgbWZs6clgyJrnN8uGk6lEBQIFESWNB7O8+Z7UzOpcRr09VRqPtSOgo2/WlkTIjh4ABI8awLLyppK2beC5dyuvK0PNOX9sd9wlzZdvvuW/2UaTKKvHxUvdyLRcr8yLHfDPEaTGeczIVNBBgEnqv62/FVtjhN0QLMB7rOZ1HIsH33qC5jTTilJZ+7aFQUb1XBy1HCayw4dtqgVeAAiBjiraT5qiuPBfbxZAhroQP48W0xQMg1ppfMNrL7S4hvm6Yv9hrmeNsLXflBL4WrAAM5dAgudyXkAH/z1HPTe7w2jqfAaV2y8P9Rg4hLr8jQYgknXlm1KgtmzDzkx4CfrQlllc/SvuBs3s+kScEDT9FtQ+wlQu1FzGvNvMrOSB3UNQ6BZgmAGvpsZMA0wLDo/NdV0dujar3b5HvTFr+DAAaxvOsMq3nxvaj4fLC43fuX6nunNm83fHcjxYeXRlTQeb5vyLtb0xQOO5asqaGABK0kuIFeFYMPGvwSSFcEH89Wn4q/IdW0/5fW5LZdvkFZmV+7r0zDlnj37pAe+GFL5M3Q5AULMeLrb4yaDD48aj2utKQEHNK15X2o6q2KehdZmhBoNkz3JoUawyeI3S0svZDPw4czJIjnUmIPjv+hqOmgLb2ygQiAJNv5SQPFn8zu1oig+eG0t03ZsO29f9uvmU4p1pRc/56MYhBQhe5q9aOpi46Rs9grsWoEEC1faV2C19v8K+RMsYuqD6dRQZTr0U9Rg9gBkwEnGSDJqNPF0D6LNXCGydrnpDmja5U5VcZ6q4aAGuzIMqIYzoRxq1HCmT3+JEOlzkrt6WeanJ7FO61HaVHGpa15VsaQCaLixjzG6Hy72zGb8u3Lz9rPyshvmAhlWAwfO9zQRajBLWwa+BmZuApDB1SplTDIpyV6Yx7ZulzTClHv33+5rMPDBwPFf1mA6OpwGs9RDWv6bA5qWv0W1n2ClhjN7/qzWviGBZ545ODMzUoCWo3k4CIPlC9A1J4F6S4AaJsFF82CQaBnv6YFDf0CJLhlJ1o1iZE6DqfddaMz+HdA0Rs5NPUqlhkPzGUsQZK9e0QRQAg8j1ZiHswhamyK0IdecBOotgSi0EtLFMA+GEWQEljQiyFJbtymVP81mToOp911ozP4d0DRGzi11FItSIyN09tIFJeucPvMVgOeyp+EgD4e0N/TjaKRaWctxmk5L3ci2ORloLqa9MIKsE/4XJFIyD4YaTApmst59tyn5ZQqaTBJEmC6KrG1u7ppO1AHNmsS0sVayKDUmdHo8amCKRs0b0tnQd8MINfpxGDzAXJwFhEYzqq2EKCnXnASqlYBFj3UgRJnhyXTu0/9Cwkv6YpgDw1oxNJ15AJNQk5qLIqtW0q27vgOa1r03DTszYxooTKPwGnJxsihNkIE5jSSeDJMml9pCJuNrOblyTRyNWGvYWboDtYsENLESvhcmTjKDn+DRkU4rczLDkklymYaZLAXKfubAxHt7vSRLbOPaxpSAA5qNeV+ruyqGzjLMFgmdjFQjfQ01HWozDBhgmHTu8iUFHjIOaE0cBg+0MGt0dQJwa4cpAWNRZi0YZvATWLq24wNNhhUtNYMf4EMQiiU7PUZl5sCsEBUY5nm5fTVPAg5omif7lj+y1cOZHxtVk1oWYJOhlgOtZ35iHNFq056WA3BiZFuR5abL/pyWvzx3gjVKoOx3QZlk5rQQNNT30tMLP8ugaitpgEyKIAMTWXJoxNWDqVHm7bq5A5p2vXMNOG+Chmo54FSjlkPgWcCUIEPzGtmjGUxAjWcOBJ95AI+LWmvAjWmRQ1jUWALA0omqldRY6MwnezLNYgSbDmotcP6r9gJTmqsH0yI3r8Gn4YCmwQLfCIcjzQ21mhy0GwINw6QZSDA3QeboAPMAkkFJ/Kks0tR0yELgWttJwHwuyppMvwuSKjVyjLkv3X2g5PfqwDAsmUDTRVMZfS+gh3HNSYAScEDj+kHVEmCejefLoT8nq4ECeRReY/InNRuNXkP1z7lR+HcQTJAHAwFpb5xPp2pRt8QG5nNJMGMfzvzOkS3QXrxoMWoyDFFOdHerwz/WSd8LNBj6XpAn45qTACXggMb1g5olYFFrjExjhNqc+nSg5UDrYRIogwc0TBqaEDUc0t4UGXRANmmAVlG1nUWP7Kvms3E7qFoCzHGJIkOfxJRMokSuSxRAoZoLNJgOaCZ04NO5z+TKTmgrXdBeOn2fCyPKXP2XqqW+qTZwQLOpbnedLtai1ggayM1RMGGyp286K8xOe4ADAJqDhqNmNmg7WoIa4MM8HY9zzTES1OkO3XS3kRgz9AEopOIHqCRZEhlaC/NbOqnBAFAIMPFuLww56pvOCC40p1Fz0ZwXFzV2Uzlv5oUOaDbz3W/QtZej16DZeCDjgQ1pcBhAwHo5CwQcVgVl9Bo0HQUsf1pagLYD/w4TRh0PW3U3TSPDUPYAlNTQVqC1kBmZGgsBglNEi9FhT61FM/UZMQb6fQWZEQAMkymhyRB8aBJzzUlgPRJwQLMeqbltqpJAOXqtQJOZZzqjBuPl62SU1JN+HLIT5BHRplOY4OaRx+OZ3DJSgqZE31Cx6Eg/1yp8gkyUJjFqHAAWmrhoAkviQ78Ks/ETiAzTKfwvXmY+zGCa3+I5/VV7ibtosbXK3K23sgQc0KwsFze3ARIo+3aQHKoM0gQbBRpoOpMeyBBsFlBbZ5HmNWg8Bfp24OcpUdsh8DB3x/w8FtlGzacIXjaa9JSJeqNwtHmcYUxsjERZ0wBaCjUVMiD7/pUoc1oUWMApBtNWnL4WAgfMYh2o4eKBDICmH4ADzYUhyPEyyPhlkF2GfgN6/+Y6hAOazXW/W+tqzbezuOCBBcEDpjMWZKPpzDOhga0AAEPTWh6s03MAImo5hZkpTRil2Y3h1uVibhpO7YEQgUw/G4SjzTjDFFgAJjR9eTQvfpEw3/wVh/kr3tPnO/AHJQEWZJrGCDhqLvNNZywwRtMZ5zEIIApfjfO1tNYjslHOxgHNRrmTG/g6CDhK/glQoVmtQKAB6DDIIG/+HYRPM6iAfh6NamN0W9nHAyAD6Fh0m4IPc3ro99GPD0jqB/I1IS5XjcimvlakGpIvbF2+XFuiuWoZlYrvILf5BAtPI/Gnqp14Wgkjv/RFTy3F11TK0WCmsZiPxc9nUf8KtRXktGh0GBiR6bRXin2ayUhWiXmODXkDPyBtcGkOaNrgJm32U1QwIFD4UW0EHs90ZpoLTWhexJsCDctUqy+IeT780OyGfB/f/KY5QAw6oPYzDw0K5rgFRslRi/K1Kwu9VrNckUDlByPAJBcBwERQO5PmuaDPyHwiNGvpGr6Jy9NEWCIaGgPNWvjQIW9aBB3zHZZ7kqSWAf+IT+lCLYTRYF5+ip9lb6HH2IZAU478gkZCsxnNZxHVWnynP49JoAJ4ueYk0AwJOKBphtTdMesiAYKNmtkUaAAuBBZqOdB2CvDzLCCpVM1suczSeroOfETIASLg0OdDkFGtCMCjgAbwUW3I9wEp0PjazqI/jxfEF3mML3RoLSWADD+mmdCHoqYpM1sxRJjfAQpMbowzF4VEk9ROCDoKMMi8h8mrA8mQcfhXqLVwuX5QMMzWI7i45iTQyhJYF9BMTE0vtxe08hW6c3MScBJwEnASaDsJRBzQtN09cyfsJOAk4CTQVhJwQNNWt8udrJOAk4CTQPtJwAFN+90zd8ZOAk4CTgJtJQEHNG11u9zJOgk4CTgJtJ8E/n/XRDe8gcMqjAAAAABJRU5ErkJggg==;" vertex="1" parent="1">
          <mxGeometry x="234.53" y="415.13" width="80.94" height="79.75" as="geometry" />
        </mxCell>
        <mxCell id="DmISjQHBVxlSU7l8rtDy-5" style="edgeStyle=orthogonalEdgeStyle;rounded=0;orthogonalLoop=1;jettySize=auto;html=1;exitX=1;exitY=0.5;exitDx=0;exitDy=0;entryX=-0.014;entryY=0.371;entryDx=0;entryDy=0;entryPerimeter=0;" edge="1" parent="1" source="DmISjQHBVxlSU7l8rtDy-4" target="sZqguTcHC14YNJKMhpEw-8">
          <mxGeometry relative="1" as="geometry" />
        </mxCell>
      </root>
    </mxGraphModel>
  </diagram>
</mxfile>
